999
dxfrw 0.6.3
  0
SECTION
  2
HEADER
  9
$ACADVER
  1
AC1021
  9
$DWGCODEPAGE
  3
ANSI_1252
  9
$INSBASE
 10
0
 20
0
 30
0
  9
$EXTMIN
 10
-266.794571574352
 20
5.851898779663422
 30
0
  9
$EXTMAX
 10
-143.1082214213104
 20
236.4701656915248
 30
0
  9
$LIMMIN
 10
0
 20
0
  9
$LIMMAX
 10
420
 20
297
  9
$ORTHOMODE
 70
    0
  9
$REGENMODE
 70
    1
  9
$FILLMODE
 70
    1
  9
$QTEXTMODE
 70
    0
  9
$MIRRTEXT
 70
    0
  9
$LTSCALE
 40
1
  9
$ATTMODE
 70
    0
  9
$TEXTSIZE
 40
2.5
  9
$TRACEWID
 40
15.68
  9
$TEXTSTYLE
  7
STANDARD
  9
$CLAYER
  8
0
  9
$CELTYPE
  6
BYLAYER
  9
$CECOLOR
 62
  256
  9
$CELTSCALE
 40
1
  9
$DISPSILH
 70
    0
  9
$DIMSCALE
 40
2.5
  9
$DIMASZ
 40
2.5
  9
$DIMEXO
 40
0.625
  9
$DIMDLI
 40
3.75
  9
$DIMRND
 40
0
  9
$DIMDLE
 40
0
  9
$DIMEXE
 40
1.25
  9
$DIMTP
 40
0
  9
$DIMTM
 40
0
  9
$DIMTXT
 40
2.5
  9
$DIMCEN
 40
2.5
  9
$DIMTSZ
 40
0
  9
$DIMTOL
 70
    0
  9
$DIMLIM
 70
    0
  9
$DIMTIH
 70
    0
  9
$DIMTOH
 70
    0
  9
$DIMSE1
 70
    0
  9
$DIMSE2
 70
    0
  9
$DIMTAD
 70
    1
  9
$DIMZIN
 70
    8
  9
$DIMBLK
  1

  9
$DIMASO
 70
    1
  9
$DIMSHO
 70
    1
  9
$DIMPOST
  1

  9
$DIMAPOST
  1

  9
$DIMALT
 70
    0
  9
$DIMALTD
 70
    3
  9
$DIMALTF
 40
0.03937
  9
$DIMLFAC
 40
1
  9
$DIMTOFL
 70
    1
  9
$DIMTVP
 40
0
  9
$DIMTIX
 70
    0
  9
$DIMSOXD
 70
    0
  9
$DIMSAH
 70
    0
  9
$DIMBLK1
  1

  9
$DIMBLK2
  1

  9
$DIMSTYLE
  2
Standard
  9
$DIMCLRD
 70
    0
  9
$DIMCLRE
 70
    0
  9
$DIMCLRT
 70
    0
  9
$DIMTFAC
 40
1
  9
$DIMGAP
 40
0.625
  9
$DIMJUST
 70
    0
  9
$DIMSD1
 70
    0
  9
$DIMSD2
 70
    0
  9
$DIMTOLJ
 70
    0
  9
$DIMTZIN
 70
    8
  9
$DIMALTZ
 70
    0
  9
$DIMALTTZ
 70
    0
  9
$DIMUPT
 70
    0
  9
$DIMDEC
 70
    2
  9
$DIMTDEC
 70
    2
  9
$DIMALTU
 70
    2
  9
$DIMALTTD
 70
    3
  9
$DIMTXSTY
  7
STANDARD
  9
$DIMAUNIT
 70
    0
  9
$DIMADEC
 70
    0
  9
$DIMALTRND
 40
0
  9
$DIMAZIN
 70
    0
  9
$DIMDSEP
 70
   44
  9
$DIMATFIT
 70
    3
  9
$DIMFRAC
 70
    0
  9
$DIMLDRBLK
  1
STANDARD
  9
$DIMLUNIT
 70
    2
  9
$DIMLWD
 70
   -2
  9
$DIMLWE
 70
   -2
  9
$DIMTMOVE
 70
    0
  9
$DIMFXL
 40
1
  9
$DIMFXLON
 70
    0
  9
$DIMJOGANG
 40
0.7854
  9
$DIMTFILL
 70
    0
  9
$DIMTFILLCLR
 70
    0
  9
$DIMARCSYM
 70
    0
  9
$DIMLTYPE
  6

  9
$DIMLTEX1
  6

  9
$DIMLTEX2
  6

  9
$LUNITS
 70
    2
  9
$LUPREC
 70
    4
  9
$SKETCHINC
 40
1
  9
$FILLETRAD
 40
0
  9
$AUNITS
 70
    0
  9
$AUPREC
 70
    2
  9
$MENU
  1
.
  9
$ELEVATION
 40
0
  9
$PELEVATION
 40
0
  9
$THICKNESS
 40
0
  9
$LIMCHECK
 70
    0
  9
$CHAMFERA
 40
0
  9
$CHAMFERB
 40
0
  9
$CHAMFERC
 40
0
  9
$CHAMFERD
 40
0
  9
$SKPOLY
 70
    0
  9
$USRTIMER
 70
    1
  9
$ANGBASE
 50
0
  9
$ANGDIR
 70
    0
  9
$PDMODE
 70
   34
  9
$PDSIZE
 40
0
  9
$PLINEWID
 40
0
  9
$SPLFRAME
 70
    0
  9
$SPLINETYPE
 70
    2
  9
$SPLINESEGS
 70
    8
  9
$HANDSEED
  5
20000
  9
$SURFTAB1
 70
    6
  9
$SURFTAB2
 70
    6
  9
$SURFTYPE
 70
    6
  9
$SURFU
 70
    6
  9
$SURFV
 70
    6
  9
$UCSBASE
  2

  9
$UCSNAME
  2

  9
$UCSORG
 10
0
 20
0
 30
0
  9
$UCSXDIR
 10
1
 20
0
 30
0
  9
$UCSYDIR
 10
0
 20
1
 30
0
  9
$UCSORTHOREF
  2

  9
$UCSORTHOVIEW
 70
    0
  9
$UCSORGTOP
 10
0
 20
0
 30
0
  9
$UCSORGBOTTOM
 10
0
 20
0
 30
0
  9
$UCSORGLEFT
 10
0
 20
0
 30
0
  9
$UCSORGRIGHT
 10
0
 20
0
 30
0
  9
$UCSORGFRONT
 10
0
 20
0
 30
0
  9
$UCSORGBACK
 10
0
 20
0
 30
0
  9
$PUCSBASE
  2

  9
$PUCSNAME
  2

  9
$PUCSORG
 10
0
 20
0
 30
0
  9
$PUCSXDIR
 10
1
 20
0
 30
0
  9
$PUCSYDIR
 10
0
 20
1
 30
0
  9
$PUCSORTHOREF
  2

  9
$PUCSORTHOVIEW
 70
    0
  9
$PUCSORGTOP
 10
0
 20
0
 30
0
  9
$PUCSORGBOTTOM
 10
0
 20
0
 30
0
  9
$PUCSORGLEFT
 10
0
 20
0
 30
0
  9
$PUCSORGRIGHT
 10
0
 20
0
 30
0
  9
$PUCSORGFRONT
 10
0
 20
0
 30
0
  9
$PUCSORGBACK
 10
0
 20
0
 30
0
  9
$USERI1
 70
    0
  9
$USERI2
 70
    0
  9
$USERI3
 70
    0
  9
$USERI4
 70
    0
  9
$USERI5
 70
    0
  9
$USERR1
 40
0
  9
$USERR2
 40
0
  9
$USERR3
 40
0
  9
$USERR4
 40
0
  9
$USERR5
 40
0
  9
$WORLDVIEW
 70
    1
  9
$SHADEDGE
 70
    3
  9
$SHADEDIF
 70
   70
  9
$TILEMODE
 70
    1
  9
$MAXACTVP
 70
   64
  9
$PINSBASE
 10
347.2522036214527
 20
16.09188233437268
 30
0
  9
$PLIMCHECK
 70
    0
  9
$PEXTMIN
 10
0
 20
0
 30
0
  9
$PEXTMAX
 10
0
 20
0
 30
0
  9
$GRIDMODE
 70
    1
  9
$SNAPSTYLE
 70
    0
  9
$PLIMMIN
 10
0
 20
0
  9
$PLIMMAX
 10
210
 20
297
  9
$UNITMODE
 70
    0
  9
$VISRETAIN
 70
    1
  9
$PLINEGEN
 70
    0
  9
$PSLTSCALE
 70
    1
  9
$TREEDEPTH
 70
 3020
  9
$CMLSTYLE
  2
Standard
  9
$CMLJUST
 70
    0
  9
$CMLSCALE
 40
20
  9
$PROXYGRAPHICS
 70
    1
  9
$MEASUREMENT
 70
    1
  9
$CELWEIGHT
370
   -1
  9
$ENDCAPS
280
    0
  9
$JOINSTYLE
280
    0
  9
$LWDISPLAY
290
    0
  9
$INSUNITS
 70
    4
  9
$HYPERLINKBASE
  1

  9
$STYLESHEET
  1

  9
$XEDIT
290
    1
  9
$CEPSNTYPE
380
    0
  9
$PSTYLEMODE
290
    1
  9
$EXTNAMES
290
    1
  9
$PSVPSCALE
 40
1.17944
  9
$OLESTARTUP
290
    0
  9
$SORTENTS
280
  127
  9
$INDEXCTL
280
    0
  9
$HIDETEXT
280
    1
  9
$XCLIPFRAME
290
    0
  9
$HALOGAP
280
    0
  9
$OBSCOLOR
 70
  257
  9
$OBSLTYPE
280
    0
  9
$INTERSECTIONDISPLAY
280
    0
  9
$INTERSECTIONCOLOR
 70
  257
  9
$DIMASSOC
280
    1
  9
$PROJECTNAME
  1

  9
$CAMERADISPLAY
290
    0
  9
$LENSLENGTH
 40
50
  9
$CAMERAHEIGHT
 40
0
  9
$STEPSPERSEC
 40
2
  9
$STEPSIZE
 40
50
  9
$3DDWFPREC
 40
2
  9
$PSOLWIDTH
 40
5
  9
$PSOLHEIGHT
 40
80
  9
$LOFTANG1
 40
1.570796326794897
  9
$LOFTANG2
 40
1.570796326794897
  9
$LOFTMAG1
 40
0
  9
$LOFTMAG2
 40
0
  9
$LOFTPARAM
 70
    7
  9
$LOFTNORMALS
280
    1
  9
$LATITUDE
 40
1
  9
$LONGITUDE
 40
1
  9
$NORTHDIRECTION
 40
0
  9
$TIMEZONE
 70
-8000
  9
$LIGHTGLYPHDISPLAY
280
    1
  9
$TILEMODELIGHTSYNCH
280
    1
  9
$SOLIDHIST
280
    1
  9
$SHOWHIST
280
    1
  9
$DWFFRAME
280
    2
  9
$DGNFRAME
280
    0
  9
$REALWORLDSCALE
290
    1
  9
$INTERFERECOLOR
 62
    1
  9
$CSHADOW
280
    0
  9
$SHADOWPLANELOCATION
 40
0
  0
ENDSEC
  0
SECTION
  2
CLASSES
  0
ENDSEC
  0
SECTION
  2
TABLES
  0
TABLE
  2
VPORT
  5
8
330
0
100
AcDbSymbolTable
 70
    1
  0
VPORT
  5
31
330
2
100
AcDbSymbolTableRecord
100
AcDbViewportTableRecord
  2
*ACTIVE
 70
    0
 10
0
 20
0
 11
1
 21
1
 12
-52.66263980088384
 22
51.08866301978644
 13
0
 23
0
 14
10
 24
10
 15
10
 25
10
 16
0
 26
0
 36
1
 17
0
 27
0
 37
0
 40
105.5876090652839
 41
1.941614906832298
 42
50
 43
0
 44
0
 50
0
 51
0
 71
    0
 72
  100
 73
    1
 74
    3
 75
    0
 76
    1
 77
    0
 78
    0
281
    0
 65
    1
110
0
120
0
130
0
111
1
121
0
131
0
112
0
122
1
132
0
 79
    0
146
0
348
10020
 60
    7
 61
    5
292
1
282
    1
141
0
142
0
 63
  250
421
3358443
  0
ENDTAB
  0
TABLE
  2
LTYPE
  5
5
330
0
100
AcDbSymbolTable
 70
    4
  0
LTYPE
  5
14
330
5
100
AcDbSymbolTableRecord
100
AcDbLinetypeTableRecord
  2
ByBlock
 70
    0
  3

 72
   65
 73
    0
 40
0
  0
LTYPE
  5
15
330
5
100
AcDbSymbolTableRecord
100
AcDbLinetypeTableRecord
  2
ByLayer
 70
    0
  3

 72
   65
 73
    0
 40
0
  0
LTYPE
  5
16
330
5
100
AcDbSymbolTableRecord
100
AcDbLinetypeTableRecord
  2
Continuous
 70
    0
  3
Solid line
 72
   65
 73
    0
 40
0
  0
LTYPE
  5
32
330
5
100
AcDbSymbolTableRecord
100
AcDbLinetypeTableRecord
  2
DOT
 70
    0
  3
Dot . . . . . . . . . . . . . . . . . . . . . .
 72
   65
 73
    2
 40
6.35
 49
0
 74
    0
 49
-6.35
 74
    0
  0
LTYPE
  5
33
330
5
100
AcDbSymbolTableRecord
100
AcDbLinetypeTableRecord
  2
DOTTINY
 70
    0
  3
Dot (.15x) .....................................
 72
   65
 73
    2
 40
0.9525
 49
0
 74
    0
 49
-0.9525
 74
    0
  0
LTYPE
  5
34
330
5
100
AcDbSymbolTableRecord
100
AcDbLinetypeTableRecord
  2
DOT2
 70
    0
  3
Dot (.5x) .....................................
 72
   65
 73
    2
 40
3.175
 49
0
 74
    0
 49
-3.175
 74
    0
  0
LTYPE
  5
35
330
5
100
AcDbSymbolTableRecord
100
AcDbLinetypeTableRecord
  2
DOTX2
 70
    0
  3
Dot (2x) .  .  .  .  .  .  .  .  .  .  .  .  .
 72
   65
 73
    2
 40
12.7
 49
0
 74
    0
 49
-12.7
 74
    0
  0
LTYPE
  5
36
330
5
100
AcDbSymbolTableRecord
100
AcDbLinetypeTableRecord
  2
DASHED
 70
    0
  3
Dashed _ _ _ _ _ _ _ _ _ _ _ _ _ _ _ _ _
 72
   65
 73
    2
 40
19.05
 49
12.7
 74
    0
 49
-6.35
 74
    0
  0
LTYPE
  5
37
330
5
100
AcDbSymbolTableRecord
100
AcDbLinetypeTableRecord
  2
DASHEDTINY
 70
    0
  3
Dashed (.15x) _ _ _ _ _ _ _ _ _ _ _ _ _ _ _ _ _
 72
   65
 73
    2
 40
2.8575
 49
1.905
 74
    0
 49
-0.9525
 74
    0
  0
LTYPE
  5
38
330
5
100
AcDbSymbolTableRecord
100
AcDbLinetypeTableRecord
  2
DASHED2
 70
    0
  3
Dashed (.5x) _ _ _ _ _ _ _ _ _ _ _ _ _ _ _ _ _
 72
   65
 73
    2
 40
9.524999999999999
 49
6.35
 74
    0
 49
-3.175
 74
    0
  0
LTYPE
  5
39
330
5
100
AcDbSymbolTableRecord
100
AcDbLinetypeTableRecord
  2
DASHEDX2
 70
    0
  3
Dashed (2x) ____  ____  ____  ____  ____  ___
 72
   65
 73
    2
 40
38.09999999999999
 49
25.4
 74
    0
 49
-12.7
 74
    0
  0
LTYPE
  5
3A
330
5
100
AcDbSymbolTableRecord
100
AcDbLinetypeTableRecord
  2
DASHDOT
 70
    0
  3
Dash dot __ . __ . __ . __ . __ . __ . __ . __
 72
   65
 73
    4
 40
25.4
 49
12.7
 74
    0
 49
-6.35
 74
    0
 49
0
 74
    0
 49
-6.35
 74
    0
  0
LTYPE
  5
3B
330
5
100
AcDbSymbolTableRecord
100
AcDbLinetypeTableRecord
  2
DASHDOTTINY
 70
    0
  3
Dash dot (.15x) _._._._._._._._._._._._._._._.
 72
   65
 73
    4
 40
3.81
 49
1.905
 74
    0
 49
-0.9525
 74
    0
 49
0
 74
    0
 49
-0.9525
 74
    0
  0
LTYPE
  5
3C
330
5
100
AcDbSymbolTableRecord
100
AcDbLinetypeTableRecord
  2
DASHDOT2
 70
    0
  3
Dash dot (.5x) _._._._._._._._._._._._._._._.
 72
   65
 73
    4
 40
12.7
 49
6.35
 74
    0
 49
-3.175
 74
    0
 49
0
 74
    0
 49
-3.175
 74
    0
  0
LTYPE
  5
3D
330
5
100
AcDbSymbolTableRecord
100
AcDbLinetypeTableRecord
  2
DASHDOTX2
 70
    0
  3
Dash dot (2x) ____  .  ____  .  ____  .  ___
 72
   65
 73
    4
 40
50.8
 49
25.4
 74
    0
 49
-12.7
 74
    0
 49
0
 74
    0
 49
-12.7
 74
    0
  0
LTYPE
  5
3E
330
5
100
AcDbSymbolTableRecord
100
AcDbLinetypeTableRecord
  2
DIVIDE
 70
    0
  3
Divide ____ . . ____ . . ____ . . ____ . . ____
 72
   65
 73
    6
 40
31.75
 49
12.7
 74
    0
 49
-6.35
 74
    0
 49
0
 74
    0
 49
-6.35
 74
    0
 49
0
 74
    0
 49
-6.35
 74
    0
  0
LTYPE
  5
3F
330
5
100
AcDbSymbolTableRecord
100
AcDbLinetypeTableRecord
  2
DIVIDETINY
 70
    0
  3
Divide (.15x) __..__..__..__..__..__..__..__.._
 72
   65
 73
    6
 40
4.7625
 49
1.905
 74
    0
 49
-0.9525
 74
    0
 49
0
 74
    0
 49
-0.9525
 74
    0
 49
0
 74
    0
 49
-0.9525
 74
    0
  0
LTYPE
  5
40
330
5
100
AcDbSymbolTableRecord
100
AcDbLinetypeTableRecord
  2
DIVIDE2
 70
    0
  3
Divide (.5x) __..__..__..__..__..__..__..__.._
 72
   65
 73
    6
 40
15.875
 49
6.35
 74
    0
 49
-3.175
 74
    0
 49
0
 74
    0
 49
-3.175
 74
    0
 49
0
 74
    0
 49
-3.175
 74
    0
  0
LTYPE
  5
41
330
5
100
AcDbSymbolTableRecord
100
AcDbLinetypeTableRecord
  2
DIVIDEX2
 70
    0
  3
Divide (2x) ________  .  .  ________  .  .  _
 72
   65
 73
    6
 40
63.5
 49
25.4
 74
    0
 49
-12.7
 74
    0
 49
0
 74
    0
 49
-12.7
 74
    0
 49
0
 74
    0
 49
-12.7
 74
    0
  0
LTYPE
  5
42
330
5
100
AcDbSymbolTableRecord
100
AcDbLinetypeTableRecord
  2
BORDER
 70
    0
  3
Border __ __ . __ __ . __ __ . __ __ . __ __ .
 72
   65
 73
    6
 40
44.45
 49
12.7
 74
    0
 49
-6.35
 74
    0
 49
12.7
 74
    0
 49
-6.35
 74
    0
 49
0
 74
    0
 49
-6.35
 74
    0
  0
LTYPE
  5
43
330
5
100
AcDbSymbolTableRecord
100
AcDbLinetypeTableRecord
  2
BORDERTINY
 70
    0
  3
Border (.15x) __.__.__.__.__.__.__.__.__.__.__.
 72
   65
 73
    6
 40
6.6675
 49
1.905
 74
    0
 49
-0.9525
 74
    0
 49
1.905
 74
    0
 49
-0.9525
 74
    0
 49
0
 74
    0
 49
-0.9525
 74
    0
  0
LTYPE
  5
44
330
5
100
AcDbSymbolTableRecord
100
AcDbLinetypeTableRecord
  2
BORDER2
 70
    0
  3
Border (.5x) __.__.__.__.__.__.__.__.__.__.__.
 72
   65
 73
    6
 40
22.225
 49
6.35
 74
    0
 49
-3.175
 74
    0
 49
6.35
 74
    0
 49
-3.175
 74
    0
 49
0
 74
    0
 49
-3.175
 74
    0
  0
LTYPE
  5
45
330
5
100
AcDbSymbolTableRecord
100
AcDbLinetypeTableRecord
  2
BORDERX2
 70
    0
  3
Border (2x) ____  ____  .  ____  ____  .  ___
 72
   65
 73
    6
 40
88.89999999999999
 49
25.4
 74
    0
 49
-12.7
 74
    0
 49
25.4
 74
    0
 49
-12.7
 74
    0
 49
0
 74
    0
 49
-12.7
 74
    0
  0
LTYPE
  5
46
330
5
100
AcDbSymbolTableRecord
100
AcDbLinetypeTableRecord
  2
CENTER
 70
    0
  3
Center ____ _ ____ _ ____ _ ____ _ ____ _ ____
 72
   65
 73
    4
 40
50.8
 49
31.75
 74
    0
 49
-6.35
 74
    0
 49
6.35
 74
    0
 49
-6.35
 74
    0
  0
LTYPE
  5
47
330
5
100
AcDbSymbolTableRecord
100
AcDbLinetypeTableRecord
  2
CENTERTINY
 70
    0
  3
Center (.15x) ___ _ ___ _ ___ _ ___ _ ___ _ ___
 72
   65
 73
    4
 40
7.619999999999999
 49
4.7625
 74
    0
 49
-0.9525
 74
    0
 49
0.9525
 74
    0
 49
-0.9525
 74
    0
  0
LTYPE
  5
48
330
5
100
AcDbSymbolTableRecord
100
AcDbLinetypeTableRecord
  2
CENTER2
 70
    0
  3
Center (.5x) ___ _ ___ _ ___ _ ___ _ ___ _ ___
 72
   65
 73
    4
 40
28.575
 49
19.05
 74
    0
 49
-3.175
 74
    0
 49
3.175
 74
    0
 49
-3.175
 74
    0
  0
LTYPE
  5
49
330
5
100
AcDbSymbolTableRecord
100
AcDbLinetypeTableRecord
  2
CENTERX2
 70
    0
  3
Center (2x) ________  __  ________  __  _____
 72
   65
 73
    4
 40
101.6
 49
63.5
 74
    0
 49
-12.7
 74
    0
 49
12.7
 74
    0
 49
-12.7
 74
    0
  0
ENDTAB
  0
TABLE
  2
LAYER
  5
2
330
0
100
AcDbSymbolTable
 70
    1
  0
LAYER
  5
10
330
2
100
AcDbSymbolTableRecord
100
AcDbLayerTableRecord
  2
0
 70
    0
 62
    7
  6
CONTINUOUS
370
   25
390
F
  0
LAYER
  5
4A
330
2
100
AcDbSymbolTableRecord
100
AcDbLayerTableRecord
  2
Layer0
 70
    0
 62
  255
  6
ByLayer
370
   -3
390
F
  0
ENDTAB
  0
TABLE
  2
STYLE
  5
3
330
0
100
AcDbSymbolTable
 70
    3
  0
STYLE
  5
4B
330
2
100
AcDbSymbolTableRecord
100
AcDbTextStyleTableRecord
  2
Standard
 70
    0
 40
0
 41
1
 50
0
 71
    0
 42
1
  3
txt
  4

  0
ENDTAB
  0
TABLE
  2
VIEW
  5
6
330
0
100
AcDbSymbolTable
 70
    0
  0
ENDTAB
  0
TABLE
  2
UCS
  5
7
330
0
100
AcDbSymbolTable
 70
    0
  0
ENDTAB
  0
TABLE
  2
APPID
  5
9
330
0
100
AcDbSymbolTable
 70
    1
  0
APPID
  5
12
330
9
100
AcDbSymbolTableRecord
100
AcDbRegAppTableRecord
  2
ACAD
 70
    0
  0
APPID
  5
4C
330
9
100
AcDbSymbolTableRecord
100
AcDbRegAppTableRecord
  2
LibreCad
 70
    0
  0
ENDTAB
  0
TABLE
  2
DIMSTYLE
  5
A
330
0
100
AcDbSymbolTable
 70
    1
100
AcDbDimStyleTable
 71
    1
  0
DIMSTYLE
105
4D
330
A
100
AcDbSymbolTableRecord
100
AcDbDimStyleTableRecord
  2
Standard
 70
    0
 40
2.5
 41
2.5
 42
0.625
 43
0.38
 44
1.25
 45
0
 46
0
 47
0
 48
0
 49
1
140
2.5
141
0.09
142
0
143
25.4
144
1
145
0
146
1
147
0.625
148
0
 71
    0
 72
    0
 73
    0
 74
    1
 75
    0
 76
    0
 77
    0
 78
    8
 79
    0
170
    0
171
    2
172
    0
173
    0
174
    0
175
    0
176
    0
177
    0
178
    0
179
    0
271
    2
272
    4
273
    2
274
    2
275
    0
276
    0
277
    2
278
   44
279
    0
280
    0
281
    0
282
    0
283
    1
284
    0
285
    0
286
    0
288
    0
289
    3
340
STANDARD
341

371
   -2
372
   -2
  0
ENDTAB
  0
TABLE
  2
BLOCK_RECORD
  5
1
330
0
100
AcDbSymbolTable
 70
    2
  0
BLOCK_RECORD
  5
1F
330
1
100
AcDbSymbolTableRecord
100
AcDbBlockTableRecord
  2
*Model_Space
 70
    0
280
    1
281
    0
  0
BLOCK_RECORD
  5
1E
330
1
100
AcDbSymbolTableRecord
100
AcDbBlockTableRecord
  2
*Paper_Space
 70
    0
280
    1
281
    0
  0
ENDTAB
  0
ENDSEC
  0
SECTION
  2
BLOCKS
  0
BLOCK
  5
20
330
1F
100
AcDbEntity
  8
0
100
AcDbBlockBegin
  2
*Model_Space
 70
    0
 10
0
 20
0
 30
0
  3
*Model_Space
  1

  0
ENDBLK
  5
21
330
1F
100
AcDbEntity
  8
0
100
AcDbBlockEnd
  0
BLOCK
  5
1C
330
1B
100
AcDbEntity
  8
0
100
AcDbBlockBegin
  2
*Paper_Space
 70
    0
 10
0
 20
0
 30
0
  3
*Paper_Space
  1

  0
ENDBLK
  5
1D
330
1F
100
AcDbEntity
  8
0
100
AcDbBlockEnd
  0
ENDSEC
  0
SECTION
  2
ENTITIES
  0
LINE
  5
4E
100
AcDbEntity
  8
Layer0
  6
ByLayer
 62
  256
370
   -1
100
AcDbLine
 10
-195.730697867463
 20
7.09620386702968
 11
-263.794571574352
 21
7.0962038670297
  0
LINE
  5
4F
100
AcDbEntity
  8
Layer0
  6
ByLayer
 62
  256
370
   -1
100
AcDbLine
 10
-263.794571574352
 20
7.0962038670297
 11
-264.57102870966
 21
7.19842638816261
  0
LINE
  5
50
100
AcDbEntity
  8
Layer0
  6
ByLayer
 62
  256
370
   -1
100
AcDbLine
 10
-264.57102870966
 20
7.19842638816261
 11
-265.294571574352
 21
7.49812765567637
  0
LINE
  5
51
100
AcDbEntity
  8
Layer0
  6
ByLayer
 62
  256
370
   -1
100
AcDbLine
 10
-265.294571574352
 20
7.49812765567637
 11
-265.915891917912
 21
7.97488352346994
  0
LINE
  5
52
100
AcDbEntity
  8
Layer0
  6
ByLayer
 62
  256
370
   -1
100
AcDbLine
 10
-265.915891917912
 20
7.97488352346994
 11
-266.392647785706
 21
8.59620386702974
  0
LINE
  5
53
100
AcDbEntity
  8
Layer0
  6
ByLayer
 62
  256
370
   -1
100
AcDbLine
 10
-266.392647785706
 20
8.59620386702974
 11
-266.69234905322
 21
9.319746731722139
  0
LINE
  5
54
100
AcDbEntity
  8
Layer0
  6
ByLayer
 62
  256
370
   -1
100
AcDbLine
 10
-266.69234905322
 20
9.319746731722139
 11
-266.794571574352
 21
10.0962038670297
  0
LINE
  5
55
100
AcDbEntity
  8
Layer0
  6
ByLayer
 62
  256
370
   -1
100
AcDbLine
 10
-266.794571574352
 20
10.0962038670297
 11
-266.794571574352
 21
92.5962038670297
  0
LINE
  5
56
100
AcDbEntity
  8
Layer0
  6
ByLayer
 62
  256
370
   -1
100
AcDbLine
 10
-266.794571574352
 20
92.5962038670297
 11
-266.692349053219
 21
93.3726610023373
  0
LINE
  5
57
100
AcDbEntity
  8
Layer0
  6
ByLayer
 62
  256
370
   -1
100
AcDbLine
 10
-266.692349053219
 20
93.3726610023373
 11
-266.392647785705
 21
94.0962038670297
  0
LINE
  5
58
100
AcDbEntity
  8
Layer0
  6
ByLayer
 62
  256
370
   -1
100
AcDbLine
 10
-266.392647785705
 20
94.0962038670297
 11
-265.915891917912
 21
94.7175242105894
  0
LINE
  5
59
100
AcDbEntity
  8
Layer0
  6
ByLayer
 62
  256
370
   -1
100
AcDbLine
 10
-265.915891917912
 20
94.7175242105894
 11
-265.294571574352
 21
95.194280078383
  0
LINE
  5
5A
100
AcDbEntity
  8
Layer0
  6
ByLayer
 62
  256
370
   -1
100
AcDbLine
 10
-265.294571574352
 20
95.194280078383
 11
-264.57102870966
 21
95.4939813458969
  0
LINE
  5
5B
100
AcDbEntity
  8
Layer0
  6
ByLayer
 62
  256
370
   -1
100
AcDbLine
 10
-264.57102870966
 20
95.4939813458969
 11
-263.794571574352
 21
95.5962038670297
  0
LINE
  5
5C
100
AcDbEntity
  8
Layer0
  6
ByLayer
 62
  256
370
   -1
100
AcDbLine
 10
-263.794571574352
 20
95.5962038670297
 11
-195.730697867463
 21
95.5962038670296
  0
LINE
  5
5D
100
AcDbEntity
  8
Layer0
  6
ByLayer
 62
  256
370
   -1
100
AcDbLine
 10
-195.730697867463
 20
95.5962038670296
 11
-194.954240732156
 21
95.4939813458968
  0
LINE
  5
5E
100
AcDbEntity
  8
Layer0
  6
ByLayer
 62
  256
370
   -1
100
AcDbLine
 10
-194.954240732156
 20
95.4939813458968
 11
-194.230697867463
 21
95.1942800783829
  0
LINE
  5
5F
100
AcDbEntity
  8
Layer0
  6
ByLayer
 62
  256
370
   -1
100
AcDbLine
 10
-194.230697867463
 20
95.1942800783829
 11
-193.609377523904
 21
94.7175242105894
  0
LINE
  5
60
100
AcDbEntity
  8
Layer0
  6
ByLayer
 62
  256
370
   -1
100
AcDbLine
 10
-193.609377523904
 20
94.7175242105894
 11
-193.13262165611
 21
94.0962038670296
  0
LINE
  5
61
100
AcDbEntity
  8
Layer0
  6
ByLayer
 62
  256
370
   -1
100
AcDbLine
 10
-193.13262165611
 20
94.0962038670296
 11
-192.832920388596
 21
93.3726610023372
  0
LINE
  5
62
100
AcDbEntity
  8
Layer0
  6
ByLayer
 62
  256
370
   -1
100
AcDbLine
 10
-192.832920388596
 20
93.3726610023372
 11
-192.730697867463
 21
92.5962038670297
  0
LINE
  5
63
100
AcDbEntity
  8
Layer0
  6
ByLayer
 62
  256
370
   -1
100
AcDbLine
 10
-192.730697867463
 20
92.5962038670297
 11
-192.730697867463
 21
10.0962038670297
  0
LINE
  5
64
100
AcDbEntity
  8
Layer0
  6
ByLayer
 62
  256
370
   -1
100
AcDbLine
 10
-192.730697867463
 20
10.0962038670297
 11
-192.832920388596
 21
9.31974673172212
  0
LINE
  5
65
100
AcDbEntity
  8
Layer0
  6
ByLayer
 62
  256
370
   -1
100
AcDbLine
 10
-192.832920388596
 20
9.31974673172212
 11
-193.13262165611
 21
8.596203867029679
  0
LINE
  5
66
100
AcDbEntity
  8
Layer0
  6
ByLayer
 62
  256
370
   -1
100
AcDbLine
 10
-193.13262165611
 20
8.596203867029679
 11
-193.609377523904
 21
7.97488352347003
  0
LINE
  5
67
100
AcDbEntity
  8
Layer0
  6
ByLayer
 62
  256
370
   -1
100
AcDbLine
 10
-193.609377523904
 20
7.97488352347003
 11
-194.230697867463
 21
7.49812765567635
  0
LINE
  5
68
100
AcDbEntity
  8
Layer0
  6
ByLayer
 62
  256
370
   -1
100
AcDbLine
 10
-194.230697867463
 20
7.49812765567635
 11
-194.954240732156
 21
7.19842638816247
  0
LINE
  5
69
100
AcDbEntity
  8
Layer0
  6
ByLayer
 62
  256
370
   -1
100
AcDbLine
 10
-194.954240732156
 20
7.19842638816247
 11
-195.730697867463
 21
7.09620386702968
  0
LINE
  5
6A
100
AcDbEntity
  8
Layer0
  6
ByLayer
 62
  256
370
   -1
100
AcDbLine
 10
-198.730697867463
 20
11.5962038670297
 11
-198.679586606897
 21
11.2079752993759
  0
LINE
  5
6B
100
AcDbEntity
  8
Layer0
  6
ByLayer
 62
  256
370
   -1
100
AcDbLine
 10
-198.679586606897
 20
11.2079752993759
 11
-198.52973597314
 21
10.8462038670297
  0
LINE
  5
6C
100
AcDbEntity
  8
Layer0
  6
ByLayer
 62
  256
370
   -1
100
AcDbLine
 10
-198.52973597314
 20
10.8462038670297
 11
-198.291358039243
 21
10.5355436952499
  0
LINE
  5
6D
100
AcDbEntity
  8
Layer0
  6
ByLayer
 62
  256
370
   -1
100
AcDbLine
 10
-198.291358039243
 20
10.5355436952499
 11
-197.980697867463
 21
10.297165761353
  0
LINE
  5
6E
100
AcDbEntity
  8
Layer0
  6
ByLayer
 62
  256
370
   -1
100
AcDbLine
 10
-197.980697867463
 20
10.297165761353
 11
-197.618926435117
 21
10.1473151275961
  0
LINE
  5
6F
100
AcDbEntity
  8
Layer0
  6
ByLayer
 62
  256
370
   -1
100
AcDbLine
 10
-197.618926435117
 20
10.1473151275961
 11
-197.230697867463
 21
10.0962038670297
  0
LINE
  5
70
100
AcDbEntity
  8
Layer0
  6
ByLayer
 62
  256
370
   -1
100
AcDbLine
 10
-197.230697867463
 20
10.0962038670297
 11
-196.842469299809
 21
10.1473151275961
  0
LINE
  5
71
100
AcDbEntity
  8
Layer0
  6
ByLayer
 62
  256
370
   -1
100
AcDbLine
 10
-196.842469299809
 20
10.1473151275961
 11
-196.480697867463
 21
10.297165761353
  0
LINE
  5
72
100
AcDbEntity
  8
Layer0
  6
ByLayer
 62
  256
370
   -1
100
AcDbLine
 10
-196.480697867463
 20
10.297165761353
 11
-196.170037695683
 21
10.5355436952499
  0
LINE
  5
73
100
AcDbEntity
  8
Layer0
  6
ByLayer
 62
  256
370
   -1
100
AcDbLine
 10
-196.170037695683
 20
10.5355436952499
 11
-195.931659761787
 21
10.8462038670297
  0
LINE
  5
74
100
AcDbEntity
  8
Layer0
  6
ByLayer
 62
  256
370
   -1
100
AcDbLine
 10
-195.931659761787
 20
10.8462038670297
 11
-195.78180912803
 21
11.2079752993759
  0
LINE
  5
75
100
AcDbEntity
  8
Layer0
  6
ByLayer
 62
  256
370
   -1
100
AcDbLine
 10
-195.78180912803
 20
11.2079752993759
 11
-195.730697867463
 21
11.5962038670297
  0
LINE
  5
76
100
AcDbEntity
  8
Layer0
  6
ByLayer
 62
  256
370
   -1
100
AcDbLine
 10
-195.730697867463
 20
11.5962038670297
 11
-195.78180912803
 21
11.9844324346835
  0
LINE
  5
77
100
AcDbEntity
  8
Layer0
  6
ByLayer
 62
  256
370
   -1
100
AcDbLine
 10
-195.78180912803
 20
11.9844324346835
 11
-195.931659761787
 21
12.3462038670297
  0
LINE
  5
78
100
AcDbEntity
  8
Layer0
  6
ByLayer
 62
  256
370
   -1
100
AcDbLine
 10
-195.931659761787
 20
12.3462038670297
 11
-196.170037695683
 21
12.6568640388095
  0
LINE
  5
79
100
AcDbEntity
  8
Layer0
  6
ByLayer
 62
  256
370
   -1
100
AcDbLine
 10
-196.170037695683
 20
12.6568640388095
 11
-196.480697867463
 21
12.8952419727063
  0
LINE
  5
7A
100
AcDbEntity
  8
Layer0
  6
ByLayer
 62
  256
370
   -1
100
AcDbLine
 10
-196.480697867463
 20
12.8952419727063
 11
-196.842469299809
 21
13.0450926064633
  0
LINE
  5
7B
100
AcDbEntity
  8
Layer0
  6
ByLayer
 62
  256
370
   -1
100
AcDbLine
 10
-196.842469299809
 20
13.0450926064633
 11
-197.230697867463
 21
13.0962038670297
  0
LINE
  5
7C
100
AcDbEntity
  8
Layer0
  6
ByLayer
 62
  256
370
   -1
100
AcDbLine
 10
-197.230697867463
 20
13.0962038670297
 11
-197.618926435117
 21
13.0450926064633
  0
LINE
  5
7D
100
AcDbEntity
  8
Layer0
  6
ByLayer
 62
  256
370
   -1
100
AcDbLine
 10
-197.618926435117
 20
13.0450926064633
 11
-197.980697867463
 21
12.8952419727063
  0
LINE
  5
7E
100
AcDbEntity
  8
Layer0
  6
ByLayer
 62
  256
370
   -1
100
AcDbLine
 10
-197.980697867463
 20
12.8952419727063
 11
-198.291358039243
 21
12.6568640388095
  0
LINE
  5
7F
100
AcDbEntity
  8
Layer0
  6
ByLayer
 62
  256
370
   -1
100
AcDbLine
 10
-198.291358039243
 20
12.6568640388095
 11
-198.52973597314
 21
12.3462038670297
  0
LINE
  5
80
100
AcDbEntity
  8
Layer0
  6
ByLayer
 62
  256
370
   -1
100
AcDbLine
 10
-198.52973597314
 20
12.3462038670297
 11
-198.679586606897
 21
11.9844324346835
  0
LINE
  5
81
100
AcDbEntity
  8
Layer0
  6
ByLayer
 62
  256
370
   -1
100
AcDbLine
 10
-198.679586606897
 20
11.9844324346835
 11
-198.730697867463
 21
11.5962038670297
  0
LINE
  5
82
100
AcDbEntity
  8
Layer0
  6
ByLayer
 62
  256
370
   -1
100
AcDbLine
 10
-198.730697867463
 20
91.0962038670297
 11
-198.679586606897
 21
90.7079752993759
  0
LINE
  5
83
100
AcDbEntity
  8
Layer0
  6
ByLayer
 62
  256
370
   -1
100
AcDbLine
 10
-198.679586606897
 20
90.7079752993759
 11
-198.52973597314
 21
90.3462038670297
  0
LINE
  5
84
100
AcDbEntity
  8
Layer0
  6
ByLayer
 62
  256
370
   -1
100
AcDbLine
 10
-198.52973597314
 20
90.3462038670297
 11
-198.291358039243
 21
90.0355436952499
  0
LINE
  5
85
100
AcDbEntity
  8
Layer0
  6
ByLayer
 62
  256
370
   -1
100
AcDbLine
 10
-198.291358039243
 20
90.0355436952499
 11
-197.980697867463
 21
89.7971657613531
  0
LINE
  5
86
100
AcDbEntity
  8
Layer0
  6
ByLayer
 62
  256
370
   -1
100
AcDbLine
 10
-197.980697867463
 20
89.7971657613531
 11
-197.618926435117
 21
89.6473151275961
  0
LINE
  5
87
100
AcDbEntity
  8
Layer0
  6
ByLayer
 62
  256
370
   -1
100
AcDbLine
 10
-197.618926435117
 20
89.6473151275961
 11
-197.230697867463
 21
89.5962038670297
  0
LINE
  5
88
100
AcDbEntity
  8
Layer0
  6
ByLayer
 62
  256
370
   -1
100
AcDbLine
 10
-197.230697867463
 20
89.5962038670297
 11
-196.842469299809
 21
89.6473151275961
  0
LINE
  5
89
100
AcDbEntity
  8
Layer0
  6
ByLayer
 62
  256
370
   -1
100
AcDbLine
 10
-196.842469299809
 20
89.6473151275961
 11
-196.480697867463
 21
89.7971657613531
  0
LINE
  5
8A
100
AcDbEntity
  8
Layer0
  6
ByLayer
 62
  256
370
   -1
100
AcDbLine
 10
-196.480697867463
 20
89.7971657613531
 11
-196.170037695683
 21
90.0355436952499
  0
LINE
  5
8B
100
AcDbEntity
  8
Layer0
  6
ByLayer
 62
  256
370
   -1
100
AcDbLine
 10
-196.170037695683
 20
90.0355436952499
 11
-195.931659761787
 21
90.3462038670297
  0
LINE
  5
8C
100
AcDbEntity
  8
Layer0
  6
ByLayer
 62
  256
370
   -1
100
AcDbLine
 10
-195.931659761787
 20
90.3462038670297
 11
-195.78180912803
 21
90.7079752993759
  0
LINE
  5
8D
100
AcDbEntity
  8
Layer0
  6
ByLayer
 62
  256
370
   -1
100
AcDbLine
 10
-195.78180912803
 20
90.7079752993759
 11
-195.730697867463
 21
91.0962038670297
  0
LINE
  5
8E
100
AcDbEntity
  8
Layer0
  6
ByLayer
 62
  256
370
   -1
100
AcDbLine
 10
-195.730697867463
 20
91.0962038670297
 11
-195.78180912803
 21
91.4844324346835
  0
LINE
  5
8F
100
AcDbEntity
  8
Layer0
  6
ByLayer
 62
  256
370
   -1
100
AcDbLine
 10
-195.78180912803
 20
91.4844324346835
 11
-195.931659761787
 21
91.8462038670297
  0
LINE
  5
90
100
AcDbEntity
  8
Layer0
  6
ByLayer
 62
  256
370
   -1
100
AcDbLine
 10
-195.931659761787
 20
91.8462038670297
 11
-196.170037695683
 21
92.1568640388096
  0
LINE
  5
91
100
AcDbEntity
  8
Layer0
  6
ByLayer
 62
  256
370
   -1
100
AcDbLine
 10
-196.170037695683
 20
92.1568640388096
 11
-196.480697867463
 21
92.3952419727064
  0
LINE
  5
92
100
AcDbEntity
  8
Layer0
  6
ByLayer
 62
  256
370
   -1
100
AcDbLine
 10
-196.480697867463
 20
92.3952419727064
 11
-196.842469299809
 21
92.5450926064633
  0
LINE
  5
93
100
AcDbEntity
  8
Layer0
  6
ByLayer
 62
  256
370
   -1
100
AcDbLine
 10
-196.842469299809
 20
92.5450926064633
 11
-197.230697867463
 21
92.5962038670297
  0
LINE
  5
94
100
AcDbEntity
  8
Layer0
  6
ByLayer
 62
  256
370
   -1
100
AcDbLine
 10
-197.230697867463
 20
92.5962038670297
 11
-197.618926435117
 21
92.5450926064633
  0
LINE
  5
95
100
AcDbEntity
  8
Layer0
  6
ByLayer
 62
  256
370
   -1
100
AcDbLine
 10
-197.618926435117
 20
92.5450926064633
 11
-197.980697867463
 21
92.3952419727064
  0
LINE
  5
96
100
AcDbEntity
  8
Layer0
  6
ByLayer
 62
  256
370
   -1
100
AcDbLine
 10
-197.980697867463
 20
92.3952419727064
 11
-198.291358039243
 21
92.1568640388096
  0
LINE
  5
97
100
AcDbEntity
  8
Layer0
  6
ByLayer
 62
  256
370
   -1
100
AcDbLine
 10
-198.291358039243
 20
92.1568640388096
 11
-198.52973597314
 21
91.8462038670297
  0
LINE
  5
98
100
AcDbEntity
  8
Layer0
  6
ByLayer
 62
  256
370
   -1
100
AcDbLine
 10
-198.52973597314
 20
91.8462038670297
 11
-198.679586606897
 21
91.4844324346835
  0
LINE
  5
99
100
AcDbEntity
  8
Layer0
  6
ByLayer
 62
  256
370
   -1
100
AcDbLine
 10
-198.679586606897
 20
91.4844324346835
 11
-198.730697867463
 21
91.0962038670297
  0
LINE
  5
9A
100
AcDbEntity
  8
Layer0
  6
ByLayer
 62
  256
370
   -1
100
AcDbLine
 10
-260.794571574352
 20
11.5962038670298
 11
-260.845682834919
 21
11.9844324346836
  0
LINE
  5
9B
100
AcDbEntity
  8
Layer0
  6
ByLayer
 62
  256
370
   -1
100
AcDbLine
 10
-260.845682834919
 20
11.9844324346836
 11
-260.995533468676
 21
12.3462038670298
  0
LINE
  5
9C
100
AcDbEntity
  8
Layer0
  6
ByLayer
 62
  256
370
   -1
100
AcDbLine
 10
-260.995533468676
 20
12.3462038670298
 11
-261.233911402573
 21
12.6568640388096
  0
LINE
  5
9D
100
AcDbEntity
  8
Layer0
  6
ByLayer
 62
  256
370
   -1
100
AcDbLine
 10
-261.233911402573
 20
12.6568640388096
 11
-261.544571574352
 21
12.8952419727065
  0
LINE
  5
9E
100
AcDbEntity
  8
Layer0
  6
ByLayer
 62
  256
370
   -1
100
AcDbLine
 10
-261.544571574352
 20
12.8952419727065
 11
-261.906343006699
 21
13.0450926064634
  0
LINE
  5
9F
100
AcDbEntity
  8
Layer0
  6
ByLayer
 62
  256
370
   -1
100
AcDbLine
 10
-261.906343006699
 20
13.0450926064634
 11
-262.294571574352
 21
13.0962038670298
  0
LINE
  5
A0
100
AcDbEntity
  8
Layer0
  6
ByLayer
 62
  256
370
   -1
100
AcDbLine
 10
-262.294571574352
 20
13.0962038670298
 11
-262.682800142006
 21
13.0450926064634
  0
LINE
  5
A1
100
AcDbEntity
  8
Layer0
  6
ByLayer
 62
  256
370
   -1
100
AcDbLine
 10
-262.682800142006
 20
13.0450926064634
 11
-263.044571574352
 21
12.8952419727065
  0
LINE
  5
A2
100
AcDbEntity
  8
Layer0
  6
ByLayer
 62
  256
370
   -1
100
AcDbLine
 10
-263.044571574352
 20
12.8952419727065
 11
-263.355231746132
 21
12.6568640388096
  0
LINE
  5
A3
100
AcDbEntity
  8
Layer0
  6
ByLayer
 62
  256
370
   -1
100
AcDbLine
 10
-263.355231746132
 20
12.6568640388096
 11
-263.593609680029
 21
12.3462038670298
  0
LINE
  5
A4
100
AcDbEntity
  8
Layer0
  6
ByLayer
 62
  256
370
   -1
100
AcDbLine
 10
-263.593609680029
 20
12.3462038670298
 11
-263.743460313786
 21
11.9844324346836
  0
LINE
  5
A5
100
AcDbEntity
  8
Layer0
  6
ByLayer
 62
  256
370
   -1
100
AcDbLine
 10
-263.743460313786
 20
11.9844324346836
 11
-263.794571574352
 21
11.5962038670298
  0
LINE
  5
A6
100
AcDbEntity
  8
Layer0
  6
ByLayer
 62
  256
370
   -1
100
AcDbLine
 10
-263.794571574352
 20
11.5962038670298
 11
-263.743460313786
 21
11.207975299376
  0
LINE
  5
A7
100
AcDbEntity
  8
Layer0
  6
ByLayer
 62
  256
370
   -1
100
AcDbLine
 10
-263.743460313786
 20
11.207975299376
 11
-263.593609680029
 21
10.8462038670298
  0
LINE
  5
A8
100
AcDbEntity
  8
Layer0
  6
ByLayer
 62
  256
370
   -1
100
AcDbLine
 10
-263.593609680029
 20
10.8462038670298
 11
-263.355231746132
 21
10.53554369525
  0
LINE
  5
A9
100
AcDbEntity
  8
Layer0
  6
ByLayer
 62
  256
370
   -1
100
AcDbLine
 10
-263.355231746132
 20
10.53554369525
 11
-263.044571574352
 21
10.2971657613531
  0
LINE
  5
AA
100
AcDbEntity
  8
Layer0
  6
ByLayer
 62
  256
370
   -1
100
AcDbLine
 10
-263.044571574352
 20
10.2971657613531
 11
-262.682800142006
 21
10.1473151275962
  0
LINE
  5
AB
100
AcDbEntity
  8
Layer0
  6
ByLayer
 62
  256
370
   -1
100
AcDbLine
 10
-262.682800142006
 20
10.1473151275962
 11
-262.294571574352
 21
10.0962038670298
  0
LINE
  5
AC
100
AcDbEntity
  8
Layer0
  6
ByLayer
 62
  256
370
   -1
100
AcDbLine
 10
-262.294571574352
 20
10.0962038670298
 11
-261.906343006699
 21
10.1473151275962
  0
LINE
  5
AD
100
AcDbEntity
  8
Layer0
  6
ByLayer
 62
  256
370
   -1
100
AcDbLine
 10
-261.906343006699
 20
10.1473151275962
 11
-261.544571574352
 21
10.2971657613531
  0
LINE
  5
AE
100
AcDbEntity
  8
Layer0
  6
ByLayer
 62
  256
370
   -1
100
AcDbLine
 10
-261.544571574352
 20
10.2971657613531
 11
-261.233911402573
 21
10.53554369525
  0
LINE
  5
AF
100
AcDbEntity
  8
Layer0
  6
ByLayer
 62
  256
370
   -1
100
AcDbLine
 10
-261.233911402573
 20
10.53554369525
 11
-260.995533468676
 21
10.8462038670298
  0
LINE
  5
B0
100
AcDbEntity
  8
Layer0
  6
ByLayer
 62
  256
370
   -1
100
AcDbLine
 10
-260.995533468676
 20
10.8462038670298
 11
-260.845682834919
 21
11.207975299376
  0
LINE
  5
B1
100
AcDbEntity
  8
Layer0
  6
ByLayer
 62
  256
370
   -1
100
AcDbLine
 10
-260.845682834919
 20
11.207975299376
 11
-260.794571574352
 21
11.5962038670298
  0
LINE
  5
B2
100
AcDbEntity
  8
Layer0
  6
ByLayer
 62
  256
370
   -1
100
AcDbLine
 10
-262.294571574352
 20
89.5962038670297
 11
-261.906343006699
 21
89.6473151275961
  0
LINE
  5
B3
100
AcDbEntity
  8
Layer0
  6
ByLayer
 62
  256
370
   -1
100
AcDbLine
 10
-261.906343006699
 20
89.6473151275961
 11
-261.544571574352
 21
89.7971657613531
  0
LINE
  5
B4
100
AcDbEntity
  8
Layer0
  6
ByLayer
 62
  256
370
   -1
100
AcDbLine
 10
-261.544571574352
 20
89.7971657613531
 11
-261.233911402573
 21
90.0355436952499
  0
LINE
  5
B5
100
AcDbEntity
  8
Layer0
  6
ByLayer
 62
  256
370
   -1
100
AcDbLine
 10
-261.233911402573
 20
90.0355436952499
 11
-260.995533468676
 21
90.3462038670297
  0
LINE
  5
B6
100
AcDbEntity
  8
Layer0
  6
ByLayer
 62
  256
370
   -1
100
AcDbLine
 10
-260.995533468676
 20
90.3462038670297
 11
-260.845682834919
 21
90.7079752993759
  0
LINE
  5
B7
100
AcDbEntity
  8
Layer0
  6
ByLayer
 62
  256
370
   -1
100
AcDbLine
 10
-260.845682834919
 20
90.7079752993759
 11
-260.794571574352
 21
91.0962038670297
  0
LINE
  5
B8
100
AcDbEntity
  8
Layer0
  6
ByLayer
 62
  256
370
   -1
100
AcDbLine
 10
-260.794571574352
 20
91.0962038670297
 11
-260.845682834919
 21
91.4844324346835
  0
LINE
  5
B9
100
AcDbEntity
  8
Layer0
  6
ByLayer
 62
  256
370
   -1
100
AcDbLine
 10
-260.845682834919
 20
91.4844324346835
 11
-260.995533468676
 21
91.8462038670297
  0
LINE
  5
BA
100
AcDbEntity
  8
Layer0
  6
ByLayer
 62
  256
370
   -1
100
AcDbLine
 10
-260.995533468676
 20
91.8462038670297
 11
-261.233911402573
 21
92.1568640388096
  0
LINE
  5
BB
100
AcDbEntity
  8
Layer0
  6
ByLayer
 62
  256
370
   -1
100
AcDbLine
 10
-261.233911402573
 20
92.1568640388096
 11
-261.544571574352
 21
92.3952419727064
  0
LINE
  5
BC
100
AcDbEntity
  8
Layer0
  6
ByLayer
 62
  256
370
   -1
100
AcDbLine
 10
-261.544571574352
 20
92.3952419727064
 11
-261.906343006699
 21
92.5450926064633
  0
LINE
  5
BD
100
AcDbEntity
  8
Layer0
  6
ByLayer
 62
  256
370
   -1
100
AcDbLine
 10
-261.906343006699
 20
92.5450926064633
 11
-262.294571574352
 21
92.5962038670297
  0
LINE
  5
BE
100
AcDbEntity
  8
Layer0
  6
ByLayer
 62
  256
370
   -1
100
AcDbLine
 10
-262.294571574352
 20
92.5962038670297
 11
-262.682800142006
 21
92.5450926064633
  0
LINE
  5
BF
100
AcDbEntity
  8
Layer0
  6
ByLayer
 62
  256
370
   -1
100
AcDbLine
 10
-262.682800142006
 20
92.5450926064633
 11
-263.044571574352
 21
92.3952419727064
  0
LINE
  5
C0
100
AcDbEntity
  8
Layer0
  6
ByLayer
 62
  256
370
   -1
100
AcDbLine
 10
-263.044571574352
 20
92.3952419727064
 11
-263.355231746132
 21
92.1568640388096
  0
LINE
  5
C1
100
AcDbEntity
  8
Layer0
  6
ByLayer
 62
  256
370
   -1
100
AcDbLine
 10
-263.355231746132
 20
92.1568640388096
 11
-263.593609680029
 21
91.8462038670297
  0
LINE
  5
C2
100
AcDbEntity
  8
Layer0
  6
ByLayer
 62
  256
370
   -1
100
AcDbLine
 10
-263.593609680029
 20
91.8462038670297
 11
-263.743460313786
 21
91.4844324346835
  0
LINE
  5
C3
100
AcDbEntity
  8
Layer0
  6
ByLayer
 62
  256
370
   -1
100
AcDbLine
 10
-263.743460313786
 20
91.4844324346835
 11
-263.794571574352
 21
91.0962038670297
  0
LINE
  5
C4
100
AcDbEntity
  8
Layer0
  6
ByLayer
 62
  256
370
   -1
100
AcDbLine
 10
-263.794571574352
 20
91.0962038670297
 11
-263.743460313786
 21
90.7079752993759
  0
LINE
  5
C5
100
AcDbEntity
  8
Layer0
  6
ByLayer
 62
  256
370
   -1
100
AcDbLine
 10
-263.743460313786
 20
90.7079752993759
 11
-263.593609680029
 21
90.3462038670297
  0
LINE
  5
C6
100
AcDbEntity
  8
Layer0
  6
ByLayer
 62
  256
370
   -1
100
AcDbLine
 10
-263.593609680029
 20
90.3462038670297
 11
-263.355231746132
 21
90.0355436952499
  0
LINE
  5
C7
100
AcDbEntity
  8
Layer0
  6
ByLayer
 62
  256
370
   -1
100
AcDbLine
 10
-263.355231746132
 20
90.0355436952499
 11
-263.044571574352
 21
89.7971657613531
  0
LINE
  5
C8
100
AcDbEntity
  8
Layer0
  6
ByLayer
 62
  256
370
   -1
100
AcDbLine
 10
-263.044571574352
 20
89.7971657613531
 11
-262.682800142006
 21
89.6473151275961
  0
LINE
  5
C9
100
AcDbEntity
  8
Layer0
  6
ByLayer
 62
  256
370
   -1
100
AcDbLine
 10
-262.682800142006
 20
89.6473151275961
 11
-262.294571574352
 21
89.5962038670297
  0
LINE
  5
CA
100
AcDbEntity
  8
Layer0
  6
ByLayer
 62
  256
370
   -1
100
AcDbLine
 10
-245.694571574352
 20
89.49620386702971
 11
-245.694571574352
 21
86.69620386702969
  0
LINE
  5
CB
100
AcDbEntity
  8
Layer0
  6
ByLayer
 62
  256
370
   -1
100
AcDbLine
 10
-245.694571574352
 20
86.69620386702969
 11
-213.894571574352
 21
86.69620386702969
  0
LINE
  5
CC
100
AcDbEntity
  8
Layer0
  6
ByLayer
 62
  256
370
   -1
100
AcDbLine
 10
-213.894571574352
 20
86.69620386702969
 11
-213.894571574352
 21
89.49620386702971
  0
LINE
  5
CD
100
AcDbEntity
  8
Layer0
  6
ByLayer
 62
  256
370
   -1
100
AcDbLine
 10
-213.894571574352
 20
89.49620386702971
 11
-245.694571574352
 21
89.49620386702971
  0
LINE
  5
CE
100
AcDbEntity
  8
Layer0
  6
ByLayer
 62
  256
370
   -1
100
AcDbLine
 10
-260.694571574352
 20
33.1962038670297
 11
-257.894571574352
 21
33.1962038670297
  0
LINE
  5
CF
100
AcDbEntity
  8
Layer0
  6
ByLayer
 62
  256
370
   -1
100
AcDbLine
 10
-257.894571574352
 20
33.1962038670297
 11
-257.894571574352
 21
69.49620386702971
  0
LINE
  5
D0
100
AcDbEntity
  8
Layer0
  6
ByLayer
 62
  256
370
   -1
100
AcDbLine
 10
-257.894571574352
 20
69.49620386702971
 11
-260.694571574352
 21
69.49620386702971
  0
LINE
  5
D1
100
AcDbEntity
  8
Layer0
  6
ByLayer
 62
  256
370
   -1
100
AcDbLine
 10
-260.694571574352
 20
69.49620386702971
 11
-260.694571574352
 21
33.1962038670297
  0
LINE
  5
D2
100
AcDbEntity
  8
Layer0
  6
ByLayer
 62
  256
370
   -1
100
AcDbLine
 10
-198.830697867463
 20
33.1962038670297
 11
-198.830697867463
 21
69.49620386702971
  0
LINE
  5
D3
100
AcDbEntity
  8
Layer0
  6
ByLayer
 62
  256
370
   -1
100
AcDbLine
 10
-198.830697867463
 20
69.49620386702971
 11
-201.630697867463
 21
69.49620386702971
  0
LINE
  5
D4
100
AcDbEntity
  8
Layer0
  6
ByLayer
 62
  256
370
   -1
100
AcDbLine
 10
-201.630697867463
 20
69.49620386702971
 11
-201.630697867463
 21
33.1962038670297
  0
LINE
  5
D5
100
AcDbEntity
  8
Layer0
  6
ByLayer
 62
  256
370
   -1
100
AcDbLine
 10
-201.630697867463
 20
33.1962038670297
 11
-198.830697867463
 21
33.1962038670297
  0
LINE
  5
D6
100
AcDbEntity
  8
Layer0
  6
ByLayer
 62
  256
370
   -1
100
AcDbLine
 10
-213.894571574352
 20
13.1962038670297
 11
-213.894571574352
 21
15.9962038670297
  0
LINE
  5
D7
100
AcDbEntity
  8
Layer0
  6
ByLayer
 62
  256
370
   -1
100
AcDbLine
 10
-213.894571574352
 20
15.9962038670297
 11
-245.694571574352
 21
15.9962038670297
  0
LINE
  5
D8
100
AcDbEntity
  8
Layer0
  6
ByLayer
 62
  256
370
   -1
100
AcDbLine
 10
-245.694571574352
 20
15.9962038670297
 11
-245.694571574352
 21
13.1962038670297
  0
LINE
  5
D9
100
AcDbEntity
  8
Layer0
  6
ByLayer
 62
  256
370
   -1
100
AcDbLine
 10
-245.694571574352
 20
13.1962038670297
 11
-213.894571574352
 21
13.1962038670297
  0
LINE
  5
DA
100
AcDbEntity
  8
Layer0
  6
ByLayer
 62
  256
370
   -1
100
AcDbLine
 10
-237.4030529091278
 20
172.3457895888744
 11
-237.6997134126508
 21
172.0655301393518
  0
LINE
  5
DB
100
AcDbEntity
  8
Layer0
  6
ByLayer
 62
  256
370
   -1
100
AcDbLine
 10
-211.7926258907098
 20
174.5991498285954
 11
-211.4335373656108
 21
174.7930782807094
  0
LINE
  5
DC
100
AcDbEntity
  8
Layer0
  6
ByLayer
 62
  256
370
   -1
100
AcDbLine
 10
-211.0364921084988
 20
174.8874598318844
 11
-210.6285480974978
 21
174.8758625353825
  0
LINE
  5
DD
100
AcDbEntity
  8
Layer0
  6
ByLayer
 62
  256
370
   -1
100
AcDbLine
 10
-238.3677569822568
 20
174.8758625353825
 11
-237.9767149275578
 21
174.7590767277924
  0
LINE
  5
DE
100
AcDbEntity
  8
Layer0
  6
ByLayer
 62
  256
370
   -1
100
AcDbLine
 10
-240.1592966454678
 20
173.580357095777
 11
-240.0425108378788
 21
173.9713991504764
  0
LINE
  5
DF
100
AcDbEntity
  8
Layer0
  6
ByLayer
 62
  256
370
   -1
100
AcDbLine
 10
-211.5156243758038
 20
171.9056032401545
 11
-211.8631156044008
 21
172.1196187990414
  0
LINE
  5
E0
100
AcDbEntity
  8
Layer0
  6
ByLayer
 62
  256
370
   -1
100
AcDbLine
 10
-238.7757009932568
 20
174.8874598318844
 11
-238.3677569822568
 21
174.8758625353825
  0
LINE
  5
E1
100
AcDbEntity
  8
Layer0
  6
ByLayer
 62
  256
370
   -1
100
AcDbLine
 10
-240.0765123907958
 20
172.7753678276644
 11
-240.1708939419708
 21
173.1724130847765
  0
LINE
  5
E2
100
AcDbEntity
  8
Layer0
  6
ByLayer
 62
  256
370
   -1
100
AcDbLine
 10
-212.3033019531198
 20
173.9713991504764
 11
-212.0892863942338
 21
174.3188903790724
  0
LINE
  5
E3
100
AcDbEntity
  8
Layer0
  6
ByLayer
 62
  256
370
   -1
100
AcDbLine
 10
-253.3131851615028
 20
124.5758625353822
 11
-252.9221431068038
 21
124.4590767277927
  0
LINE
  5
E4
100
AcDbEntity
  8
Layer0
  6
ByLayer
 62
  256
370
   -1
100
AcDbLine
 10
-211.8631156044008
 20
172.1196187990414
 11
-212.1433750539228
 21
172.4162793025648
  0
LINE
  5
E5
100
AcDbEntity
  8
Layer0
  6
ByLayer
 62
  256
370
   -1
100
AcDbLine
 10
-255.1163221212168
 20
122.8724130847764
 11
-255.1047248247148
 21
123.280357095777
  0
LINE
  5
E6
100
AcDbEntity
  8
Layer0
  6
ByLayer
 62
  256
370
   -1
100
AcDbLine
 10
-237.6292236989608
 20
174.5450611689054
 11
-237.3489642494378
 21
174.2484006653824
  0
LINE
  5
E7
100
AcDbEntity
  8
Layer0
  6
ByLayer
 62
  256
370
   -1
100
AcDbLine
 10
-209.3330426578928
 20
173.0843228721702
 11
-209.4498284654818
 21
172.6932808174713
  0
LINE
  5
E8
100
AcDbEntity
  8
Layer0
  6
ByLayer
 62
  256
370
   -1
100
AcDbLine
 10
-253.7211291725028
 20
124.5874598318848
 11
-253.3131851615028
 21
124.5758625353822
  0
LINE
  5
E9
100
AcDbEntity
  8
Layer0
  6
ByLayer
 62
  256
370
   -1
100
AcDbLine
 10
-252.5746518782068
 20
124.2450611689059
 11
-252.2943924286838
 21
123.9484006653825
  0
LINE
  5
EA
100
AcDbEntity
  8
Layer0
  6
ByLayer
 62
  256
370
   -1
100
AcDbLine
 10
-255.0219405700418
 20
122.4753678276644
 11
-255.1163221212168
 21
122.8724130847764
  0
LINE
  5
EB
100
AcDbEntity
  8
Layer0
  6
ByLayer
 62
  256
370
   -1
100
AcDbLine
 10
-254.9879390171248
 20
123.6713991504759
 11
-254.7739234582378
 21
124.0188903790729
  0
LINE
  5
EC
100
AcDbEntity
  8
Layer0
  6
ByLayer
 62
  256
370
   -1
100
AcDbLine
 10
-252.1004639765698
 20
123.5893121402829
 11
-252.0060824253948
 21
123.1922668831709
  0
LINE
  5
ED
100
AcDbEntity
  8
Layer0
  6
ByLayer
 62
  256
370
   -1
100
AcDbLine
 10
-252.9221431068038
 20
124.4590767277927
 11
-252.5746518782068
 21
124.2450611689059
  0
LINE
  5
EE
100
AcDbEntity
  8
Layer0
  6
ByLayer
 62
  256
370
   -1
100
AcDbLine
 10
-254.7739234582378
 20
124.0188903790729
 11
-254.4772629547148
 21
124.2991498285955
  0
LINE
  5
EF
100
AcDbEntity
  8
Layer0
  6
ByLayer
 62
  256
370
   -1
100
AcDbLine
 10
-210.2375060427988
 20
174.7590767277924
 11
-209.8900148142018
 21
174.5450611689054
  0
LINE
  5
F0
100
AcDbEntity
  8
Layer0
  6
ByLayer
 62
  256
370
   -1
100
AcDbLine
 10
-210.6285480974978
 20
174.8758625353825
 11
-210.2375060427988
 21
174.7590767277924
  0
LINE
  5
F1
100
AcDbEntity
  8
Layer0
  6
ByLayer
 62
  256
370
   -1
100
AcDbLine
 10
-254.2002614398078
 20
121.6056032401546
 11
-254.5477526684048
 21
121.8196187990414
  0
LINE
  5
F2
100
AcDbEntity
  8
Layer0
  6
ByLayer
 62
  256
370
   -1
100
AcDbLine
 10
-252.6451415918968
 20
121.7655301393518
 11
-253.0042301169968
 21
121.571601687238
  0
LINE
  5
F3
100
AcDbEntity
  8
Layer0
  6
ByLayer
 62
  256
370
   -1
100
AcDbLine
 10
-252.2943924286838
 20
123.9484006653825
 11
-252.1004639765698
 21
123.5893121402829
  0
LINE
  5
F4
100
AcDbEntity
  8
Layer0
  6
ByLayer
 62
  256
370
   -1
100
AcDbLine
 10
-254.5477526684048
 20
121.8196187990414
 11
-254.8280121179278
 21
122.1162793025648
  0
LINE
  5
F5
100
AcDbEntity
  8
Layer0
  6
ByLayer
 62
  256
370
   -1
100
AcDbLine
 10
-239.1727462503688
 20
174.7930782807094
 11
-238.7757009932568
 21
174.8874598318844
  0
LINE
  5
F6
100
AcDbEntity
  8
Layer0
  6
ByLayer
 62
  256
370
   -1
100
AcDbLine
 10
-209.8900148142018
 20
174.5450611689054
 11
-209.6097553646788
 21
174.2484006653824
  0
LINE
  5
F7
100
AcDbEntity
  8
Layer0
  6
ByLayer
 62
  256
370
   -1
100
AcDbLine
 10
-238.4558471948628
 20
171.7772201360625
 11
-238.8637912058628
 21
171.7888174325651
  0
LINE
  5
F8
100
AcDbEntity
  8
Layer0
  6
ByLayer
 62
  256
370
   -1
100
AcDbLine
 10
-253.4012753741088
 20
121.4772201360625
 11
-253.8092193851098
 21
121.4888174325651
  0
LINE
  5
F9
100
AcDbEntity
  8
Layer0
  6
ByLayer
 62
  256
370
   -1
100
AcDbLine
 10
-212.4200877607098
 20
173.580357095777
 11
-212.3033019531198
 21
173.9713991504764
  0
LINE
  5
FA
100
AcDbEntity
  8
Layer0
  6
ByLayer
 62
  256
370
   -1
100
AcDbLine
 10
-237.6997134126508
 20
172.0655301393518
 11
-238.0588019377508
 21
171.871601687238
  0
LINE
  5
FB
100
AcDbEntity
  8
Layer0
  6
ByLayer
 62
  256
370
   -1
100
AcDbLine
 10
-238.0588019377508
 20
171.871601687238
 11
-238.4558471948628
 21
171.7772201360625
  0
LINE
  5
FC
100
AcDbEntity
  8
Layer0
  6
ByLayer
 62
  256
370
   -1
100
AcDbLine
 10
-212.0892863942338
 20
174.3188903790724
 11
-211.7926258907098
 21
174.5991498285954
  0
LINE
  5
FD
100
AcDbEntity
  8
Layer0
  6
ByLayer
 62
  256
370
   -1
100
AcDbLine
 10
-239.8825839386818
 20
172.4162793025648
 11
-240.0765123907958
 21
172.7753678276644
  0
LINE
  5
FE
100
AcDbEntity
  8
Layer0
  6
ByLayer
 62
  256
370
   -1
100
AcDbLine
 10
-253.8092193851098
 20
121.4888174325651
 11
-254.2002614398078
 21
121.6056032401546
  0
LINE
  5
FF
100
AcDbEntity
  8
Layer0
  6
ByLayer
 62
  256
370
   -1
100
AcDbLine
 10
-239.6023244891588
 20
172.1196187990414
 11
-239.8825839386818
 21
172.4162793025648
  0
LINE
  5
100
100
AcDbEntity
  8
Layer0
  6
ByLayer
 62
  256
370
   -1
100
AcDbLine
 10
-252.1344655294868
 20
122.3932808174713
 11
-252.3484810883738
 21
122.0457895888744
  0
LINE
  5
101
100
AcDbEntity
  8
Layer0
  6
ByLayer
 62
  256
370
   -1
100
AcDbLine
 10
-239.8284952789918
 20
174.3188903790724
 11
-239.5318347754688
 21
174.5991498285954
  0
LINE
  5
102
100
AcDbEntity
  8
Layer0
  6
ByLayer
 62
  256
370
   -1
100
AcDbLine
 10
-239.5318347754688
 20
174.5991498285954
 11
-239.1727462503688
 21
174.7930782807094
  0
LINE
  5
103
100
AcDbEntity
  8
Layer0
  6
ByLayer
 62
  256
370
   -1
100
AcDbLine
 10
-237.0722515426508
 20
173.0843228721702
 11
-237.1890373502408
 21
172.6932808174713
  0
LINE
  5
104
100
AcDbEntity
  8
Layer0
  6
ByLayer
 62
  256
370
   -1
100
AcDbLine
 10
-209.9605045278918
 20
172.0655301393518
 11
-209.6638440243688
 21
172.3457895888744
  0
LINE
  5
105
100
AcDbEntity
  8
Layer0
  6
ByLayer
 62
  256
370
   -1
100
AcDbLine
 10
-209.6638440243688
 20
172.3457895888744
 11
-209.4498284654818
 21
172.6932808174713
  0
LINE
  5
106
100
AcDbEntity
  8
Layer0
  6
ByLayer
 62
  256
370
   -1
100
AcDbLine
 10
-239.6023244891588
 20
172.1196187990414
 11
-239.2548332605618
 21
171.9056032401545
  0
LINE
  5
107
100
AcDbEntity
  8
Layer0
  6
ByLayer
 62
  256
370
   -1
100
AcDbLine
 10
-239.2548332605618
 20
171.9056032401545
 11
-238.8637912058628
 21
171.7888174325651
  0
LINE
  5
108
100
AcDbEntity
  8
Layer0
  6
ByLayer
 62
  256
370
   -1
100
AcDbLine
 10
-237.4030529091278
 20
172.3457895888744
 11
-237.1890373502408
 21
172.6932808174713
  0
LINE
  5
109
100
AcDbEntity
  8
Layer0
  6
ByLayer
 62
  256
370
   -1
100
AcDbLine
 10
-237.0722515426508
 20
173.0843228721702
 11
-237.0606542461488
 21
173.4922668831709
  0
LINE
  5
10A
100
AcDbEntity
  8
Layer0
  6
ByLayer
 62
  256
370
   -1
100
AcDbLine
 10
-237.0606542461488
 20
173.4922668831709
 11
-237.1550357973238
 21
173.8893121402824
  0
LINE
  5
10B
100
AcDbEntity
  8
Layer0
  6
ByLayer
 62
  256
370
   -1
100
AcDbLine
 10
-237.1550357973238
 20
173.8893121402824
 11
-237.3489642494378
 21
174.2484006653824
  0
LINE
  5
10C
100
AcDbEntity
  8
Layer0
  6
ByLayer
 62
  256
370
   -1
100
AcDbLine
 10
-237.6292236989608
 20
174.5450611689054
 11
-237.9767149275578
 21
174.7590767277924
  0
LINE
  5
10D
100
AcDbEntity
  8
Layer0
  6
ByLayer
 62
  256
370
   -1
100
AcDbLine
 10
-239.8284952789918
 20
174.3188903790724
 11
-240.0425108378788
 21
173.9713991504764
  0
LINE
  5
10E
100
AcDbEntity
  8
Layer0
  6
ByLayer
 62
  256
370
   -1
100
AcDbLine
 10
-240.1592966454678
 20
173.580357095777
 11
-240.1708939419708
 21
173.1724130847765
  0
LINE
  5
10F
100
AcDbEntity
  8
Layer0
  6
ByLayer
 62
  256
370
   -1
100
AcDbLine
 10
-211.5156243758038
 20
171.9056032401545
 11
-211.1245823211048
 21
171.7888174325651
  0
LINE
  5
110
100
AcDbEntity
  8
Layer0
  6
ByLayer
 62
  256
370
   -1
100
AcDbLine
 10
-211.1245823211048
 20
171.7888174325651
 11
-210.7166383101038
 21
171.7772201360625
  0
LINE
  5
111
100
AcDbEntity
  8
Layer0
  6
ByLayer
 62
  256
370
   -1
100
AcDbLine
 10
-210.7166383101038
 20
171.7772201360625
 11
-210.3195930529918
 21
171.871601687238
  0
LINE
  5
112
100
AcDbEntity
  8
Layer0
  6
ByLayer
 62
  256
370
   -1
100
AcDbLine
 10
-210.3195930529918
 20
171.871601687238
 11
-209.9605045278918
 21
172.0655301393518
  0
LINE
  5
113
100
AcDbEntity
  8
Layer0
  6
ByLayer
 62
  256
370
   -1
100
AcDbLine
 10
-253.7211291725028
 20
124.5874598318848
 11
-254.1181744296148
 21
124.4930782807093
  0
LINE
  5
114
100
AcDbEntity
  8
Layer0
  6
ByLayer
 62
  256
370
   -1
100
AcDbLine
 10
-254.1181744296148
 20
124.4930782807093
 11
-254.4772629547148
 21
124.2991498285955
  0
LINE
  5
115
100
AcDbEntity
  8
Layer0
  6
ByLayer
 62
  256
370
   -1
100
AcDbLine
 10
-254.9879390171248
 20
123.6713991504759
 11
-255.1047248247148
 21
123.280357095777
  0
LINE
  5
116
100
AcDbEntity
  8
Layer0
  6
ByLayer
 62
  256
370
   -1
100
AcDbLine
 10
-255.0219405700418
 20
122.4753678276644
 11
-254.8280121179278
 21
122.1162793025648
  0
LINE
  5
117
100
AcDbEntity
  8
Layer0
  6
ByLayer
 62
  256
370
   -1
100
AcDbLine
 10
-253.4012753741088
 20
121.4772201360625
 11
-253.0042301169968
 21
121.571601687238
  0
LINE
  5
118
100
AcDbEntity
  8
Layer0
  6
ByLayer
 62
  256
370
   -1
100
AcDbLine
 10
-252.6451415918968
 20
121.7655301393518
 11
-252.3484810883738
 21
122.0457895888744
  0
LINE
  5
119
100
AcDbEntity
  8
Layer0
  6
ByLayer
 62
  256
370
   -1
100
AcDbLine
 10
-252.1344655294868
 20
122.3932808174713
 11
-252.0176797218978
 21
122.7843228721702
  0
LINE
  5
11A
100
AcDbEntity
  8
Layer0
  6
ByLayer
 62
  256
370
   -1
100
AcDbLine
 10
-252.0176797218978
 20
122.7843228721702
 11
-252.0060824253948
 21
123.1922668831709
  0
LINE
  5
11B
100
AcDbEntity
  8
Layer0
  6
ByLayer
 62
  256
370
   -1
100
AcDbLine
 10
-209.3330426578928
 20
173.0843228721702
 11
-209.3214453613898
 21
173.4922668831709
  0
LINE
  5
11C
100
AcDbEntity
  8
Layer0
  6
ByLayer
 62
  256
370
   -1
100
AcDbLine
 10
-209.3214453613898
 20
173.4922668831709
 11
-209.4158269125658
 21
173.8893121402824
  0
LINE
  5
11D
100
AcDbEntity
  8
Layer0
  6
ByLayer
 62
  256
370
   -1
100
AcDbLine
 10
-209.4158269125658
 20
173.8893121402824
 11
-209.6097553646788
 21
174.2484006653824
  0
LINE
  5
11E
100
AcDbEntity
  8
Layer0
  6
ByLayer
 62
  256
370
   -1
100
AcDbLine
 10
-211.0364921084988
 20
174.8874598318844
 11
-211.4335373656108
 21
174.7930782807094
  0
LINE
  5
11F
100
AcDbEntity
  8
Layer0
  6
ByLayer
 62
  256
370
   -1
100
AcDbLine
 10
-212.4200877607098
 20
173.580357095777
 11
-212.4316850572118
 21
173.1724130847765
  0
LINE
  5
120
100
AcDbEntity
  8
Layer0
  6
ByLayer
 62
  256
370
   -1
100
AcDbLine
 10
-212.4316850572118
 20
173.1724130847765
 11
-212.3373035060368
 21
172.7753678276644
  0
LINE
  5
121
100
AcDbEntity
  8
Layer0
  6
ByLayer
 62
  256
370
   -1
100
AcDbLine
 10
-212.3373035060368
 20
172.7753678276644
 11
-212.1433750539228
 21
172.4162793025648
  0
LINE
  5
122
100
AcDbEntity
  8
Layer0
  6
ByLayer
 62
  256
370
   -1
100
AcDbLine
 10
-265.2202798232858
 20
185.9745211556144
 11
-264.4967369585928
 21
186.2742224231284
  0
LINE
  5
123
100
AcDbEntity
  8
Layer0
  6
ByLayer
 62
  256
370
   -1
100
AcDbLine
 10
-263.7202798232858
 20
186.3764449442614
 11
-264.4967369585928
 21
186.2742224231284
  0
LINE
  5
124
100
AcDbEntity
  8
Layer0
  6
ByLayer
 62
  256
370
   -1
100
AcDbLine
 10
-263.7202798232858
 20
186.3764449442614
 11
-195.6564061163968
 21
186.3764449442614
  0
LINE
  5
125
100
AcDbEntity
  8
Layer0
  6
ByLayer
 62
  256
370
   -1
100
AcDbLine
 10
-194.8799489810888
 20
186.2742224231284
 11
-195.6564061163968
 21
186.3764449442614
  0
LINE
  5
126
100
AcDbEntity
  8
Layer0
  6
ByLayer
 62
  256
370
   -1
100
AcDbLine
 10
-194.1564061163968
 20
185.9745211556144
 11
-194.8799489810888
 21
186.2742224231284
  0
LINE
  5
127
100
AcDbEntity
  8
Layer0
  6
ByLayer
 62
  256
370
   -1
100
AcDbLine
 10
-193.5350857728368
 20
185.4977652878214
 11
-194.1564061163968
 21
185.9745211556144
  0
LINE
  5
128
100
AcDbEntity
  8
Layer0
  6
ByLayer
 62
  256
370
   -1
100
AcDbLine
 10
-193.0583299050428
 20
184.8764449442614
 11
-193.5350857728368
 21
185.4977652878214
  0
LINE
  5
129
100
AcDbEntity
  8
Layer0
  6
ByLayer
 62
  256
370
   -1
100
AcDbLine
 10
-192.7586286375288
 20
184.1529020795694
 11
-193.0583299050428
 21
184.8764449442614
  0
LINE
  5
12A
100
AcDbEntity
  8
Layer0
  6
ByLayer
 62
  256
370
   -1
100
AcDbLine
 10
-192.6564061163968
 20
183.3764449442614
 11
-192.7586286375288
 21
184.1529020795694
  0
LINE
  5
12B
100
AcDbEntity
  8
Layer0
  6
ByLayer
 62
  256
370
   -1
100
AcDbLine
 10
-192.6564061163968
 20
183.3764449442614
 11
-192.6564061163968
 21
100.8764449442614
  0
LINE
  5
12C
100
AcDbEntity
  8
Layer0
  6
ByLayer
 62
  256
370
   -1
100
AcDbLine
 10
-192.7586286375288
 20
100.0999878089539
 11
-192.6564061163968
 21
100.8764449442614
  0
LINE
  5
12D
100
AcDbEntity
  8
Layer0
  6
ByLayer
 62
  256
370
   -1
100
AcDbLine
 10
-193.0583299050428
 20
99.37644494426144
 11
-192.7586286375288
 21
100.0999878089539
  0
LINE
  5
12E
100
AcDbEntity
  8
Layer0
  6
ByLayer
 62
  256
370
   -1
100
AcDbLine
 10
-193.5350857728368
 20
98.75512460070183
 11
-193.0583299050428
 21
99.37644494426144
  0
LINE
  5
12F
100
AcDbEntity
  8
Layer0
  6
ByLayer
 62
  256
370
   -1
100
AcDbLine
 10
-194.1564061163968
 20
98.27836873290813
 11
-193.5350857728368
 21
98.75512460070183
  0
LINE
  5
130
100
AcDbEntity
  8
Layer0
  6
ByLayer
 62
  256
370
   -1
100
AcDbLine
 10
-194.8799489810888
 20
97.97866746539424
 11
-194.1564061163968
 21
98.27836873290813
  0
LINE
  5
131
100
AcDbEntity
  8
Layer0
  6
ByLayer
 62
  256
370
   -1
100
AcDbLine
 10
-195.6564061163968
 20
97.87644494426154
 11
-194.8799489810888
 21
97.97866746539424
  0
LINE
  5
132
100
AcDbEntity
  8
Layer0
  6
ByLayer
 62
  256
370
   -1
100
AcDbLine
 10
-195.6564061163968
 20
97.87644494426154
 11
-263.7202798232858
 21
97.87644494426154
  0
LINE
  5
133
100
AcDbEntity
  8
Layer0
  6
ByLayer
 62
  256
370
   -1
100
AcDbLine
 10
-264.4967369585928
 20
97.97866746539444
 11
-263.7202798232858
 21
97.87644494426154
  0
LINE
  5
134
100
AcDbEntity
  8
Layer0
  6
ByLayer
 62
  256
370
   -1
100
AcDbLine
 10
-265.2202798232858
 20
98.27836873290813
 11
-264.4967369585928
 21
97.97866746539444
  0
LINE
  5
135
100
AcDbEntity
  8
Layer0
  6
ByLayer
 62
  256
370
   -1
100
AcDbLine
 10
-265.8416001668448
 20
98.75512460070173
 11
-265.2202798232858
 21
98.27836873290813
  0
LINE
  5
136
100
AcDbEntity
  8
Layer0
  6
ByLayer
 62
  256
370
   -1
100
AcDbLine
 10
-266.3183560346388
 20
99.37644494426154
 11
-265.8416001668448
 21
98.75512460070173
  0
LINE
  5
137
100
AcDbEntity
  8
Layer0
  6
ByLayer
 62
  256
370
   -1
100
AcDbLine
 10
-266.6180573021528
 20
100.0999878089539
 11
-266.3183560346388
 21
99.37644494426154
  0
LINE
  5
138
100
AcDbEntity
  8
Layer0
  6
ByLayer
 62
  256
370
   -1
100
AcDbLine
 10
-266.7202798232858
 20
100.8764449442615
 11
-266.6180573021528
 21
100.0999878089539
  0
LINE
  5
139
100
AcDbEntity
  8
Layer0
  6
ByLayer
 62
  256
370
   -1
100
AcDbLine
 10
-266.7202798232858
 20
100.8764449442615
 11
-266.7202798232858
 21
183.3764449442614
  0
LINE
  5
13A
100
AcDbEntity
  8
Layer0
  6
ByLayer
 62
  256
370
   -1
100
AcDbLine
 10
-266.6180573021528
 20
184.1529020795694
 11
-266.7202798232858
 21
183.3764449442614
  0
LINE
  5
13B
100
AcDbEntity
  8
Layer0
  6
ByLayer
 62
  256
370
   -1
100
AcDbLine
 10
-266.3183560346388
 20
184.8764449442614
 11
-266.6180573021528
 21
184.1529020795694
  0
LINE
  5
13C
100
AcDbEntity
  8
Layer0
  6
ByLayer
 62
  256
370
   -1
100
AcDbLine
 10
-265.8416001668448
 20
185.4977652878214
 11
-266.3183560346388
 21
184.8764449442614
  0
LINE
  5
13D
100
AcDbEntity
  8
Layer0
  6
ByLayer
 62
  256
370
   -1
100
AcDbLine
 10
-265.2202798232858
 20
185.9745211556144
 11
-265.8416001668448
 21
185.4977652878214
  0
LINE
  5
13E
100
AcDbEntity
  8
Layer0
  6
ByLayer
 62
  256
370
   -1
100
AcDbLine
 10
-260.7202798232858
 20
181.8764449442614
 11
-260.7713910838518
 21
182.2646735119154
  0
LINE
  5
13F
100
AcDbEntity
  8
Layer0
  6
ByLayer
 62
  256
370
   -1
100
AcDbLine
 10
-260.7713910838518
 20
182.2646735119154
 11
-260.9212417176088
 21
182.6264449442614
  0
LINE
  5
140
100
AcDbEntity
  8
Layer0
  6
ByLayer
 62
  256
370
   -1
100
AcDbLine
 10
-260.9212417176088
 20
182.6264449442614
 11
-261.1596196515058
 21
182.9371051160414
  0
LINE
  5
141
100
AcDbEntity
  8
Layer0
  6
ByLayer
 62
  256
370
   -1
100
AcDbLine
 10
-261.1596196515058
 20
182.9371051160414
 11
-261.4702798232858
 21
183.1754830499384
  0
LINE
  5
142
100
AcDbEntity
  8
Layer0
  6
ByLayer
 62
  256
370
   -1
100
AcDbLine
 10
-261.4702798232858
 20
183.1754830499384
 11
-261.8320512556318
 21
183.3253336836954
  0
LINE
  5
143
100
AcDbEntity
  8
Layer0
  6
ByLayer
 62
  256
370
   -1
100
AcDbLine
 10
-261.8320512556318
 20
183.3253336836954
 11
-262.2202798232858
 21
183.3764449442614
  0
LINE
  5
144
100
AcDbEntity
  8
Layer0
  6
ByLayer
 62
  256
370
   -1
100
AcDbLine
 10
-262.2202798232858
 20
183.3764449442614
 11
-262.6085083909398
 21
183.3253336836954
  0
LINE
  5
145
100
AcDbEntity
  8
Layer0
  6
ByLayer
 62
  256
370
   -1
100
AcDbLine
 10
-262.6085083909398
 20
183.3253336836954
 11
-262.9702798232858
 21
183.1754830499384
  0
LINE
  5
146
100
AcDbEntity
  8
Layer0
  6
ByLayer
 62
  256
370
   -1
100
AcDbLine
 10
-262.9702798232858
 20
183.1754830499384
 11
-263.2809399950658
 21
182.9371051160414
  0
LINE
  5
147
100
AcDbEntity
  8
Layer0
  6
ByLayer
 62
  256
370
   -1
100
AcDbLine
 10
-263.2809399950658
 20
182.9371051160414
 11
-263.5193179289618
 21
182.6264449442614
  0
LINE
  5
148
100
AcDbEntity
  8
Layer0
  6
ByLayer
 62
  256
370
   -1
100
AcDbLine
 10
-263.5193179289618
 20
182.6264449442614
 11
-263.6691685627188
 21
182.2646735119154
  0
LINE
  5
149
100
AcDbEntity
  8
Layer0
  6
ByLayer
 62
  256
370
   -1
100
AcDbLine
 10
-263.6691685627188
 20
182.2646735119154
 11
-263.7202798232858
 21
181.8764449442614
  0
LINE
  5
14A
100
AcDbEntity
  8
Layer0
  6
ByLayer
 62
  256
370
   -1
100
AcDbLine
 10
-263.7202798232858
 20
181.8764449442614
 11
-263.6691685627188
 21
181.4882163766075
  0
LINE
  5
14B
100
AcDbEntity
  8
Layer0
  6
ByLayer
 62
  256
370
   -1
100
AcDbLine
 10
-263.6691685627188
 20
181.4882163766075
 11
-263.5193179289618
 21
181.1264449442614
  0
LINE
  5
14C
100
AcDbEntity
  8
Layer0
  6
ByLayer
 62
  256
370
   -1
100
AcDbLine
 10
-263.5193179289618
 20
181.1264449442614
 11
-263.2809399950658
 21
180.8157847724814
  0
LINE
  5
14D
100
AcDbEntity
  8
Layer0
  6
ByLayer
 62
  256
370
   -1
100
AcDbLine
 10
-263.2809399950658
 20
180.8157847724814
 11
-262.9702798232858
 21
180.5774068385844
  0
LINE
  5
14E
100
AcDbEntity
  8
Layer0
  6
ByLayer
 62
  256
370
   -1
100
AcDbLine
 10
-262.9702798232858
 20
180.5774068385844
 11
-262.6085083909398
 21
180.4275562048275
  0
LINE
  5
14F
100
AcDbEntity
  8
Layer0
  6
ByLayer
 62
  256
370
   -1
100
AcDbLine
 10
-262.6085083909398
 20
180.4275562048275
 11
-262.2202798232858
 21
180.3764449442614
  0
LINE
  5
150
100
AcDbEntity
  8
Layer0
  6
ByLayer
 62
  256
370
   -1
100
AcDbLine
 10
-262.2202798232858
 20
180.3764449442614
 11
-261.8320512556318
 21
180.4275562048275
  0
LINE
  5
151
100
AcDbEntity
  8
Layer0
  6
ByLayer
 62
  256
370
   -1
100
AcDbLine
 10
-261.8320512556318
 20
180.4275562048275
 11
-261.4702798232858
 21
180.5774068385844
  0
LINE
  5
152
100
AcDbEntity
  8
Layer0
  6
ByLayer
 62
  256
370
   -1
100
AcDbLine
 10
-261.4702798232858
 20
180.5774068385844
 11
-261.1596196515058
 21
180.8157847724814
  0
LINE
  5
153
100
AcDbEntity
  8
Layer0
  6
ByLayer
 62
  256
370
   -1
100
AcDbLine
 10
-261.1596196515058
 20
180.8157847724814
 11
-260.9212417176088
 21
181.1264449442614
  0
LINE
  5
154
100
AcDbEntity
  8
Layer0
  6
ByLayer
 62
  256
370
   -1
100
AcDbLine
 10
-260.9212417176088
 20
181.1264449442614
 11
-260.7713910838518
 21
181.4882163766075
  0
LINE
  5
155
100
AcDbEntity
  8
Layer0
  6
ByLayer
 62
  256
370
   -1
100
AcDbLine
 10
-260.7713910838518
 20
181.4882163766075
 11
-260.7202798232858
 21
181.8764449442614
  0
LINE
  5
156
100
AcDbEntity
  8
Layer0
  6
ByLayer
 62
  256
370
   -1
100
AcDbLine
 10
-198.6564061163968
 20
181.8764449442614
 11
-198.6052948558298
 21
181.4882163766075
  0
LINE
  5
157
100
AcDbEntity
  8
Layer0
  6
ByLayer
 62
  256
370
   -1
100
AcDbLine
 10
-198.6052948558298
 20
181.4882163766075
 11
-198.4554442220728
 21
181.1264449442614
  0
LINE
  5
158
100
AcDbEntity
  8
Layer0
  6
ByLayer
 62
  256
370
   -1
100
AcDbLine
 10
-198.4554442220728
 20
181.1264449442614
 11
-198.2170662881758
 21
180.8157847724814
  0
LINE
  5
159
100
AcDbEntity
  8
Layer0
  6
ByLayer
 62
  256
370
   -1
100
AcDbLine
 10
-198.2170662881758
 20
180.8157847724814
 11
-197.9064061163968
 21
180.5774068385844
  0
LINE
  5
15A
100
AcDbEntity
  8
Layer0
  6
ByLayer
 62
  256
370
   -1
100
AcDbLine
 10
-197.9064061163968
 20
180.5774068385844
 11
-197.5446346840498
 21
180.4275562048275
  0
LINE
  5
15B
100
AcDbEntity
  8
Layer0
  6
ByLayer
 62
  256
370
   -1
100
AcDbLine
 10
-197.5446346840498
 20
180.4275562048275
 11
-197.1564061163968
 21
180.3764449442614
  0
LINE
  5
15C
100
AcDbEntity
  8
Layer0
  6
ByLayer
 62
  256
370
   -1
100
AcDbLine
 10
-197.1564061163968
 20
180.3764449442614
 11
-196.7681775487428
 21
180.4275562048275
  0
LINE
  5
15D
100
AcDbEntity
  8
Layer0
  6
ByLayer
 62
  256
370
   -1
100
AcDbLine
 10
-196.7681775487428
 20
180.4275562048275
 11
-196.4064061163968
 21
180.5774068385844
  0
LINE
  5
15E
100
AcDbEntity
  8
Layer0
  6
ByLayer
 62
  256
370
   -1
100
AcDbLine
 10
-196.4064061163968
 20
180.5774068385844
 11
-196.0957459446168
 21
180.8157847724814
  0
LINE
  5
15F
100
AcDbEntity
  8
Layer0
  6
ByLayer
 62
  256
370
   -1
100
AcDbLine
 10
-196.0957459446168
 20
180.8157847724814
 11
-195.8573680107198
 21
181.1264449442614
  0
LINE
  5
160
100
AcDbEntity
  8
Layer0
  6
ByLayer
 62
  256
370
   -1
100
AcDbLine
 10
-195.8573680107198
 20
181.1264449442614
 11
-195.7075173769628
 21
181.4882163766075
  0
LINE
  5
161
100
AcDbEntity
  8
Layer0
  6
ByLayer
 62
  256
370
   -1
100
AcDbLine
 10
-195.7075173769628
 20
181.4882163766075
 11
-195.6564061163968
 21
181.8764449442614
  0
LINE
  5
162
100
AcDbEntity
  8
Layer0
  6
ByLayer
 62
  256
370
   -1
100
AcDbLine
 10
-195.6564061163968
 20
181.8764449442614
 11
-195.7075173769628
 21
182.2646735119154
  0
LINE
  5
163
100
AcDbEntity
  8
Layer0
  6
ByLayer
 62
  256
370
   -1
100
AcDbLine
 10
-195.7075173769628
 20
182.2646735119154
 11
-195.8573680107198
 21
182.6264449442614
  0
LINE
  5
164
100
AcDbEntity
  8
Layer0
  6
ByLayer
 62
  256
370
   -1
100
AcDbLine
 10
-195.8573680107198
 20
182.6264449442614
 11
-196.0957459446168
 21
182.9371051160414
  0
LINE
  5
165
100
AcDbEntity
  8
Layer0
  6
ByLayer
 62
  256
370
   -1
100
AcDbLine
 10
-196.0957459446168
 20
182.9371051160414
 11
-196.4064061163968
 21
183.1754830499384
  0
LINE
  5
166
100
AcDbEntity
  8
Layer0
  6
ByLayer
 62
  256
370
   -1
100
AcDbLine
 10
-196.4064061163968
 20
183.1754830499384
 11
-196.7681775487428
 21
183.3253336836954
  0
LINE
  5
167
100
AcDbEntity
  8
Layer0
  6
ByLayer
 62
  256
370
   -1
100
AcDbLine
 10
-196.7681775487428
 20
183.3253336836954
 11
-197.1564061163968
 21
183.3764449442614
  0
LINE
  5
168
100
AcDbEntity
  8
Layer0
  6
ByLayer
 62
  256
370
   -1
100
AcDbLine
 10
-197.1564061163968
 20
183.3764449442614
 11
-197.5446346840498
 21
183.3253336836954
  0
LINE
  5
169
100
AcDbEntity
  8
Layer0
  6
ByLayer
 62
  256
370
   -1
100
AcDbLine
 10
-197.5446346840498
 20
183.3253336836954
 11
-197.9064061163968
 21
183.1754830499384
  0
LINE
  5
16A
100
AcDbEntity
  8
Layer0
  6
ByLayer
 62
  256
370
   -1
100
AcDbLine
 10
-197.9064061163968
 20
183.1754830499384
 11
-198.2170662881758
 21
182.9371051160414
  0
LINE
  5
16B
100
AcDbEntity
  8
Layer0
  6
ByLayer
 62
  256
370
   -1
100
AcDbLine
 10
-198.2170662881758
 20
182.9371051160414
 11
-198.4554442220728
 21
182.6264449442614
  0
LINE
  5
16C
100
AcDbEntity
  8
Layer0
  6
ByLayer
 62
  256
370
   -1
100
AcDbLine
 10
-198.4554442220728
 20
182.6264449442614
 11
-198.6052948558298
 21
182.2646735119154
  0
LINE
  5
16D
100
AcDbEntity
  8
Layer0
  6
ByLayer
 62
  256
370
   -1
100
AcDbLine
 10
-198.6052948558298
 20
182.2646735119154
 11
-198.6564061163968
 21
181.8764449442614
  0
LINE
  5
16E
100
AcDbEntity
  8
Layer0
  6
ByLayer
 62
  256
370
   -1
100
AcDbLine
 10
-198.6564061163968
 20
102.3764449442615
 11
-198.6052948558298
 21
101.9882163766077
  0
LINE
  5
16F
100
AcDbEntity
  8
Layer0
  6
ByLayer
 62
  256
370
   -1
100
AcDbLine
 10
-198.6052948558298
 20
101.9882163766077
 11
-198.4554442220728
 21
101.6264449442615
  0
LINE
  5
170
100
AcDbEntity
  8
Layer0
  6
ByLayer
 62
  256
370
   -1
100
AcDbLine
 10
-198.4554442220728
 20
101.6264449442615
 11
-198.2170662881758
 21
101.3157847724816
  0
LINE
  5
171
100
AcDbEntity
  8
Layer0
  6
ByLayer
 62
  256
370
   -1
100
AcDbLine
 10
-198.2170662881758
 20
101.3157847724816
 11
-197.9064061163968
 21
101.0774068385848
  0
LINE
  5
172
100
AcDbEntity
  8
Layer0
  6
ByLayer
 62
  256
370
   -1
100
AcDbLine
 10
-197.9064061163968
 20
101.0774068385848
 11
-197.5446346840498
 21
100.9275562048279
  0
LINE
  5
173
100
AcDbEntity
  8
Layer0
  6
ByLayer
 62
  256
370
   -1
100
AcDbLine
 10
-197.5446346840498
 20
100.9275562048279
 11
-197.1564061163968
 21
100.8764449442615
  0
LINE
  5
174
100
AcDbEntity
  8
Layer0
  6
ByLayer
 62
  256
370
   -1
100
AcDbLine
 10
-197.1564061163968
 20
100.8764449442615
 11
-196.7681775487428
 21
100.9275562048279
  0
LINE
  5
175
100
AcDbEntity
  8
Layer0
  6
ByLayer
 62
  256
370
   -1
100
AcDbLine
 10
-196.7681775487428
 20
100.9275562048279
 11
-196.4064061163968
 21
101.0774068385848
  0
LINE
  5
176
100
AcDbEntity
  8
Layer0
  6
ByLayer
 62
  256
370
   -1
100
AcDbLine
 10
-196.4064061163968
 20
101.0774068385848
 11
-196.0957459446168
 21
101.3157847724816
  0
LINE
  5
177
100
AcDbEntity
  8
Layer0
  6
ByLayer
 62
  256
370
   -1
100
AcDbLine
 10
-196.0957459446168
 20
101.3157847724816
 11
-195.8573680107198
 21
101.6264449442615
  0
LINE
  5
178
100
AcDbEntity
  8
Layer0
  6
ByLayer
 62
  256
370
   -1
100
AcDbLine
 10
-195.8573680107198
 20
101.6264449442615
 11
-195.7075173769628
 21
101.9882163766077
  0
LINE
  5
179
100
AcDbEntity
  8
Layer0
  6
ByLayer
 62
  256
370
   -1
100
AcDbLine
 10
-195.7075173769628
 20
101.9882163766077
 11
-195.6564061163968
 21
102.3764449442615
  0
LINE
  5
17A
100
AcDbEntity
  8
Layer0
  6
ByLayer
 62
  256
370
   -1
100
AcDbLine
 10
-195.6564061163968
 20
102.3764449442615
 11
-195.7075173769628
 21
102.7646735119152
  0
LINE
  5
17B
100
AcDbEntity
  8
Layer0
  6
ByLayer
 62
  256
370
   -1
100
AcDbLine
 10
-195.7075173769628
 20
102.7646735119152
 11
-195.8573680107198
 21
103.1264449442615
  0
LINE
  5
17C
100
AcDbEntity
  8
Layer0
  6
ByLayer
 62
  256
370
   -1
100
AcDbLine
 10
-195.8573680107198
 20
103.1264449442615
 11
-196.0957459446168
 21
103.4371051160413
  0
LINE
  5
17D
100
AcDbEntity
  8
Layer0
  6
ByLayer
 62
  256
370
   -1
100
AcDbLine
 10
-196.0957459446168
 20
103.4371051160413
 11
-196.4064061163968
 21
103.6754830499381
  0
LINE
  5
17E
100
AcDbEntity
  8
Layer0
  6
ByLayer
 62
  256
370
   -1
100
AcDbLine
 10
-196.4064061163968
 20
103.6754830499381
 11
-196.7681775487428
 21
103.8253336836951
  0
LINE
  5
17F
100
AcDbEntity
  8
Layer0
  6
ByLayer
 62
  256
370
   -1
100
AcDbLine
 10
-196.7681775487428
 20
103.8253336836951
 11
-197.1564061163968
 21
103.8764449442615
  0
LINE
  5
180
100
AcDbEntity
  8
Layer0
  6
ByLayer
 62
  256
370
   -1
100
AcDbLine
 10
-197.1564061163968
 20
103.8764449442615
 11
-197.5446346840498
 21
103.8253336836951
  0
LINE
  5
181
100
AcDbEntity
  8
Layer0
  6
ByLayer
 62
  256
370
   -1
100
AcDbLine
 10
-197.5446346840498
 20
103.8253336836951
 11
-197.9064061163968
 21
103.6754830499381
  0
LINE
  5
182
100
AcDbEntity
  8
Layer0
  6
ByLayer
 62
  256
370
   -1
100
AcDbLine
 10
-197.9064061163968
 20
103.6754830499381
 11
-198.2170662881758
 21
103.4371051160413
  0
LINE
  5
183
100
AcDbEntity
  8
Layer0
  6
ByLayer
 62
  256
370
   -1
100
AcDbLine
 10
-198.2170662881758
 20
103.4371051160413
 11
-198.4554442220728
 21
103.1264449442615
  0
LINE
  5
184
100
AcDbEntity
  8
Layer0
  6
ByLayer
 62
  256
370
   -1
100
AcDbLine
 10
-198.4554442220728
 20
103.1264449442615
 11
-198.6052948558298
 21
102.7646735119152
  0
LINE
  5
185
100
AcDbEntity
  8
Layer0
  6
ByLayer
 62
  256
370
   -1
100
AcDbLine
 10
-198.6052948558298
 20
102.7646735119152
 11
-198.6564061163968
 21
102.3764449442615
  0
LINE
  5
186
100
AcDbEntity
  8
Layer0
  6
ByLayer
 62
  256
370
   -1
100
AcDbLine
 10
-262.2202798232858
 20
103.8764449442615
 11
-262.6085083909398
 21
103.8253336836951
  0
LINE
  5
187
100
AcDbEntity
  8
Layer0
  6
ByLayer
 62
  256
370
   -1
100
AcDbLine
 10
-262.6085083909398
 20
103.8253336836951
 11
-262.9702798232858
 21
103.6754830499381
  0
LINE
  5
188
100
AcDbEntity
  8
Layer0
  6
ByLayer
 62
  256
370
   -1
100
AcDbLine
 10
-262.9702798232858
 20
103.6754830499381
 11
-263.2809399950658
 21
103.4371051160413
  0
LINE
  5
189
100
AcDbEntity
  8
Layer0
  6
ByLayer
 62
  256
370
   -1
100
AcDbLine
 10
-263.2809399950658
 20
103.4371051160413
 11
-263.5193179289628
 21
103.1264449442615
  0
LINE
  5
18A
100
AcDbEntity
  8
Layer0
  6
ByLayer
 62
  256
370
   -1
100
AcDbLine
 10
-263.5193179289628
 20
103.1264449442615
 11
-263.6691685627198
 21
102.7646735119153
  0
LINE
  5
18B
100
AcDbEntity
  8
Layer0
  6
ByLayer
 62
  256
370
   -1
100
AcDbLine
 10
-263.6691685627198
 20
102.7646735119153
 11
-263.7202798232858
 21
102.3764449442615
  0
LINE
  5
18C
100
AcDbEntity
  8
Layer0
  6
ByLayer
 62
  256
370
   -1
100
AcDbLine
 10
-263.7202798232858
 20
102.3764449442615
 11
-263.6691685627198
 21
101.9882163766077
  0
LINE
  5
18D
100
AcDbEntity
  8
Layer0
  6
ByLayer
 62
  256
370
   -1
100
AcDbLine
 10
-263.6691685627198
 20
101.9882163766077
 11
-263.5193179289628
 21
101.6264449442615
  0
LINE
  5
18E
100
AcDbEntity
  8
Layer0
  6
ByLayer
 62
  256
370
   -1
100
AcDbLine
 10
-263.5193179289628
 20
101.6264449442615
 11
-263.2809399950658
 21
101.3157847724817
  0
LINE
  5
18F
100
AcDbEntity
  8
Layer0
  6
ByLayer
 62
  256
370
   -1
100
AcDbLine
 10
-263.2809399950658
 20
101.3157847724817
 11
-262.9702798232858
 21
101.0774068385848
  0
LINE
  5
190
100
AcDbEntity
  8
Layer0
  6
ByLayer
 62
  256
370
   -1
100
AcDbLine
 10
-262.9702798232858
 20
101.0774068385848
 11
-262.6085083909398
 21
100.9275562048279
  0
LINE
  5
191
100
AcDbEntity
  8
Layer0
  6
ByLayer
 62
  256
370
   -1
100
AcDbLine
 10
-262.6085083909398
 20
100.9275562048279
 11
-262.2202798232858
 21
100.8764449442615
  0
LINE
  5
192
100
AcDbEntity
  8
Layer0
  6
ByLayer
 62
  256
370
   -1
100
AcDbLine
 10
-262.2202798232858
 20
100.8764449442615
 11
-261.8320512556318
 21
100.9275562048279
  0
LINE
  5
193
100
AcDbEntity
  8
Layer0
  6
ByLayer
 62
  256
370
   -1
100
AcDbLine
 10
-261.8320512556318
 20
100.9275562048279
 11
-261.4702798232858
 21
101.0774068385848
  0
LINE
  5
194
100
AcDbEntity
  8
Layer0
  6
ByLayer
 62
  256
370
   -1
100
AcDbLine
 10
-261.4702798232858
 20
101.0774068385848
 11
-261.1596196515058
 21
101.3157847724817
  0
LINE
  5
195
100
AcDbEntity
  8
Layer0
  6
ByLayer
 62
  256
370
   -1
100
AcDbLine
 10
-261.1596196515058
 20
101.3157847724817
 11
-260.9212417176088
 21
101.6264449442615
  0
LINE
  5
196
100
AcDbEntity
  8
Layer0
  6
ByLayer
 62
  256
370
   -1
100
AcDbLine
 10
-260.9212417176088
 20
101.6264449442615
 11
-260.7713910838518
 21
101.9882163766077
  0
LINE
  5
197
100
AcDbEntity
  8
Layer0
  6
ByLayer
 62
  256
370
   -1
100
AcDbLine
 10
-260.7713910838518
 20
101.9882163766077
 11
-260.7202798232858
 21
102.3764449442615
  0
LINE
  5
198
100
AcDbEntity
  8
Layer0
  6
ByLayer
 62
  256
370
   -1
100
AcDbLine
 10
-260.7202798232858
 20
102.3764449442615
 11
-260.7713910838518
 21
102.7646735119153
  0
LINE
  5
199
100
AcDbEntity
  8
Layer0
  6
ByLayer
 62
  256
370
   -1
100
AcDbLine
 10
-260.7713910838518
 20
102.7646735119153
 11
-260.9212417176088
 21
103.1264449442615
  0
LINE
  5
19A
100
AcDbEntity
  8
Layer0
  6
ByLayer
 62
  256
370
   -1
100
AcDbLine
 10
-260.9212417176088
 20
103.1264449442615
 11
-261.1596196515058
 21
103.4371051160413
  0
LINE
  5
19B
100
AcDbEntity
  8
Layer0
  6
ByLayer
 62
  256
370
   -1
100
AcDbLine
 10
-261.1596196515058
 20
103.4371051160413
 11
-261.4702798232858
 21
103.6754830499381
  0
LINE
  5
19C
100
AcDbEntity
  8
Layer0
  6
ByLayer
 62
  256
370
   -1
100
AcDbLine
 10
-261.4702798232858
 20
103.6754830499381
 11
-261.8320512556318
 21
103.8253336836951
  0
LINE
  5
19D
100
AcDbEntity
  8
Layer0
  6
ByLayer
 62
  256
370
   -1
100
AcDbLine
 10
-261.8320512556318
 20
103.8253336836951
 11
-262.2202798232858
 21
103.8764449442615
  0
LINE
  5
19E
100
AcDbEntity
  8
Layer0
  6
ByLayer
 62
  256
370
   -1
100
AcDbLine
 10
-257.8202798232858
 20
160.2764449442615
 11
-260.6202798232858
 21
160.2764449442615
  0
LINE
  5
19F
100
AcDbEntity
  8
Layer0
  6
ByLayer
 62
  256
370
   -1
100
AcDbLine
 10
-260.6202798232858
 20
160.2764449442615
 11
-260.6202798232858
 21
123.9764449442615
  0
LINE
  5
1A0
100
AcDbEntity
  8
Layer0
  6
ByLayer
 62
  256
370
   -1
100
AcDbLine
 10
-260.6202798232858
 20
123.9764449442615
 11
-257.8202798232858
 21
123.9764449442615
  0
LINE
  5
1A1
100
AcDbEntity
  8
Layer0
  6
ByLayer
 62
  256
370
   -1
100
AcDbLine
 10
-257.8202798232858
 20
123.9764449442615
 11
-257.8202798232858
 21
160.2764449442615
  0
LINE
  5
1A2
100
AcDbEntity
  8
Layer0
  6
ByLayer
 62
  256
370
   -1
100
AcDbLine
 10
-213.8202798232858
 20
106.7764449442615
 11
-245.6202798232858
 21
106.7764449442615
  0
LINE
  5
1A3
100
AcDbEntity
  8
Layer0
  6
ByLayer
 62
  256
370
   -1
100
AcDbLine
 10
-245.6202798232858
 20
106.7764449442615
 11
-245.6202798232858
 21
103.9764449442615
  0
LINE
  5
1A4
100
AcDbEntity
  8
Layer0
  6
ByLayer
 62
  256
370
   -1
100
AcDbLine
 10
-245.6202798232858
 20
103.9764449442615
 11
-213.8202798232858
 21
103.9764449442615
  0
LINE
  5
1A5
100
AcDbEntity
  8
Layer0
  6
ByLayer
 62
  256
370
   -1
100
AcDbLine
 10
-213.8202798232858
 20
103.9764449442615
 11
-213.8202798232858
 21
106.7764449442615
  0
LINE
  5
1A6
100
AcDbEntity
  8
Layer0
  6
ByLayer
 62
  256
370
   -1
100
AcDbLine
 10
-201.5564061163968
 20
160.2764449442615
 11
-201.5564061163968
 21
123.9764449442615
  0
LINE
  5
1A7
100
AcDbEntity
  8
Layer0
  6
ByLayer
 62
  256
370
   -1
100
AcDbLine
 10
-201.5564061163968
 20
123.9764449442615
 11
-198.7564061163968
 21
123.9764449442615
  0
LINE
  5
1A8
100
AcDbEntity
  8
Layer0
  6
ByLayer
 62
  256
370
   -1
100
AcDbLine
 10
-198.7564061163968
 20
123.9764449442615
 11
-198.7564061163968
 21
160.2764449442615
  0
LINE
  5
1A9
100
AcDbEntity
  8
Layer0
  6
ByLayer
 62
  256
370
   -1
100
AcDbLine
 10
-198.7564061163968
 20
160.2764449442615
 11
-201.5564061163968
 21
160.2764449442615
  0
LINE
  5
1AA
100
AcDbEntity
  8
Layer0
  6
ByLayer
 62
  256
370
   -1
100
AcDbLine
 10
-245.6202798232858
 20
177.4764449442614
 11
-213.8202798232858
 21
177.4764449442614
  0
LINE
  5
1AB
100
AcDbEntity
  8
Layer0
  6
ByLayer
 62
  256
370
   -1
100
AcDbLine
 10
-213.8202798232858
 20
177.4764449442614
 11
-213.8202798232858
 21
180.2764449442614
  0
LINE
  5
1AC
100
AcDbEntity
  8
Layer0
  6
ByLayer
 62
  256
370
   -1
100
AcDbLine
 10
-213.8202798232858
 20
180.2764449442614
 11
-245.6202798232858
 21
180.2764449442614
  0
LINE
  5
1AD
100
AcDbEntity
  8
Layer0
  6
ByLayer
 62
  256
370
   -1
100
AcDbLine
 10
-245.6202798232858
 20
180.2764449442614
 11
-245.6202798232858
 21
177.4764449442614
  0
LINE
  5
1AE
100
AcDbEntity
  8
Layer0
  6
ByLayer
 62
  256
370
   -1
100
AcDbLine
 10
-184.7977014798539
 20
25.85189877966343
 11
-187.7977014798538
 21
25.85189877966342
  0
LINE
  5
1AF
100
AcDbEntity
  8
Layer0
  6
ByLayer
 62
  256
370
   -1
100
AcDbLine
 10
-187.7977014798538
 20
62.35189877966342
 11
-187.7977014798538
 21
25.85189877966342
  0
LINE
  5
1B0
100
AcDbEntity
  8
Layer0
  6
ByLayer
 62
  256
370
   -1
100
AcDbLine
 10
-184.7977014798538
 20
62.35189877966342
 11
-187.7977014798538
 21
62.35189877966342
  0
LINE
  5
1B1
100
AcDbEntity
  8
Layer0
  6
ByLayer
 62
  256
370
   -1
100
AcDbLine
 10
-184.7977014798539
 20
79.35189877966343
 11
-184.7977014798538
 21
62.35189877966342
  0
LINE
  5
1B2
100
AcDbEntity
  8
Layer0
  6
ByLayer
 62
  256
370
   -1
100
AcDbLine
 10
-146.7025179449808
 20
79.35189877966343
 11
-156.7025179449808
 21
79.35189877966343
  0
LINE
  5
1B3
100
AcDbEntity
  8
Layer0
  6
ByLayer
 62
  256
370
   -1
100
AcDbLine
 10
-146.7025179449808
 20
25.85189877966341
 11
-143.7025179449808
 21
25.85189877966341
  0
LINE
  5
1B4
100
AcDbEntity
  8
Layer0
  6
ByLayer
 62
  256
370
   -1
100
AcDbLine
 10
-146.7025179449808
 20
25.85189877966341
 11
-146.7025179449808
 21
5.851898779663429
  0
LINE
  5
1B5
100
AcDbEntity
  8
Layer0
  6
ByLayer
 62
  256
370
   -1
100
AcDbLine
 10
-146.7025179449808
 20
5.851898779663429
 11
-156.8025179449808
 21
5.851898779663422
  0
LINE
  5
1B6
100
AcDbEntity
  8
Layer0
  6
ByLayer
 62
  256
370
   -1
100
AcDbLine
 10
-174.6977014798538
 20
5.851898779663422
 11
-184.7977014798539
 21
5.851898779663436
  0
LINE
  5
1B7
100
AcDbEntity
  8
Layer0
  6
ByLayer
 62
  256
370
   -1
100
AcDbLine
 10
-184.7977014798539
 20
79.35189877966343
 11
-174.7977014798538
 21
79.35189877966343
  0
LINE
  5
1B8
100
AcDbEntity
  8
Layer0
  6
ByLayer
 62
  256
370
   -1
100
AcDbLine
 10
-146.7025179449808
 20
79.35189877966343
 11
-146.7025179449808
 21
62.35189877966342
  0
LINE
  5
1B9
100
AcDbEntity
  8
Layer0
  6
ByLayer
 62
  256
370
   -1
100
AcDbLine
 10
-146.7025179449808
 20
62.35189877966342
 11
-143.7025179449808
 21
62.35189877966342
  0
LINE
  5
1BA
100
AcDbEntity
  8
Layer0
  6
ByLayer
 62
  256
370
   -1
100
AcDbLine
 10
-143.7025179449808
 20
62.35189877966342
 11
-143.7025179449808
 21
25.85189877966341
  0
LINE
  5
1BB
100
AcDbEntity
  8
Layer0
  6
ByLayer
 62
  256
370
   -1
100
AcDbLine
 10
-184.7977014798539
 20
5.851898779663436
 11
-184.7977014798539
 21
25.85189877966343
  0
LINE
  5
1BC
100
AcDbEntity
  8
Layer0
  6
ByLayer
 62
  256
370
   -1
100
AcDbLine
 10
-174.6977014798538
 20
5.851898779663422
 11
-174.6977014798538
 21
8.851898779663429
  0
LINE
  5
1BD
100
AcDbEntity
  8
Layer0
  6
ByLayer
 62
  256
370
   -1
100
AcDbLine
 10
-174.6977014798538
 20
8.851898779663429
 11
-156.8025179449808
 21
8.851898779663422
  0
LINE
  5
1BE
100
AcDbEntity
  8
Layer0
  6
ByLayer
 62
  256
370
   -1
100
AcDbLine
 10
-156.8025179449808
 20
5.851898779663422
 11
-156.8025179449808
 21
8.851898779663422
  0
LINE
  5
1BF
100
AcDbEntity
  8
Layer0
  6
ByLayer
 62
  256
370
   -1
100
AcDbLine
 10
-174.7977014798538
 20
82.35189877966343
 11
-174.7977014798538
 21
79.35189877966343
  0
LINE
  5
1C0
100
AcDbEntity
  8
Layer0
  6
ByLayer
 62
  256
370
   -1
100
AcDbLine
 10
-156.7025179449808
 20
82.35189877966343
 11
-156.7025179449808
 21
79.35189877966343
  0
LINE
  5
1C1
100
AcDbEntity
  8
Layer0
  6
ByLayer
 62
  256
370
   -1
100
AcDbLine
 10
-156.7025179449808
 20
82.35189877966343
 11
-174.7977014798538
 21
82.35189877966343
  0
LINE
  5
1C2
100
AcDbEntity
  8
Layer0
  6
ByLayer
 62
  256
370
   -1
100
AcDbLine
 10
-184.2034049561834
 20
104.8933364278298
 11
-187.2034049561834
 21
104.8933364278298
  0
LINE
  5
1C3
100
AcDbEntity
  8
Layer0
  6
ByLayer
 62
  256
370
   -1
100
AcDbLine
 10
-187.2034049561834
 20
141.3933364278298
 11
-187.2034049561834
 21
104.8933364278298
  0
LINE
  5
1C4
100
AcDbEntity
  8
Layer0
  6
ByLayer
 62
  256
370
   -1
100
AcDbLine
 10
-184.2034049561834
 20
141.3933364278298
 11
-187.2034049561834
 21
141.3933364278298
  0
LINE
  5
1C5
100
AcDbEntity
  8
Layer0
  6
ByLayer
 62
  256
370
   -1
100
AcDbLine
 10
-184.2034049561834
 20
158.3933364278298
 11
-184.2034049561834
 21
141.3933364278298
  0
LINE
  5
1C6
100
AcDbEntity
  8
Layer0
  6
ByLayer
 62
  256
370
   -1
100
AcDbLine
 10
-146.1082214213104
 20
158.3933364278298
 11
-156.1082214213104
 21
158.3933364278298
  0
LINE
  5
1C7
100
AcDbEntity
  8
Layer0
  6
ByLayer
 62
  256
370
   -1
100
AcDbLine
 10
-146.1082214213104
 20
104.8933364278298
 11
-143.1082214213104
 21
104.8933364278298
  0
LINE
  5
1C8
100
AcDbEntity
  8
Layer0
  6
ByLayer
 62
  256
370
   -1
100
AcDbLine
 10
-146.1082214213104
 20
104.8933364278298
 11
-146.1082214213104
 21
84.89333642782977
  0
LINE
  5
1C9
100
AcDbEntity
  8
Layer0
  6
ByLayer
 62
  256
370
   -1
100
AcDbLine
 10
-146.1082214213104
 20
84.89333642782977
 11
-156.2082214213104
 21
84.89333642782977
  0
LINE
  5
1CA
100
AcDbEntity
  8
Layer0
  6
ByLayer
 62
  256
370
   -1
100
AcDbLine
 10
-174.1034049561834
 20
84.89333642782977
 11
-184.2034049561834
 21
84.89333642782977
  0
LINE
  5
1CB
100
AcDbEntity
  8
Layer0
  6
ByLayer
 62
  256
370
   -1
100
AcDbLine
 10
-184.2034049561834
 20
158.3933364278298
 11
-174.2034049561834
 21
158.3933364278298
  0
LINE
  5
1CC
100
AcDbEntity
  8
Layer0
  6
ByLayer
 62
  256
370
   -1
100
AcDbLine
 10
-146.1082214213104
 20
158.3933364278298
 11
-146.1082214213104
 21
141.3933364278298
  0
LINE
  5
1CD
100
AcDbEntity
  8
Layer0
  6
ByLayer
 62
  256
370
   -1
100
AcDbLine
 10
-146.1082214213104
 20
141.3933364278298
 11
-143.1082214213104
 21
141.3933364278298
  0
LINE
  5
1CE
100
AcDbEntity
  8
Layer0
  6
ByLayer
 62
  256
370
   -1
100
AcDbLine
 10
-143.1082214213104
 20
141.3933364278298
 11
-143.1082214213104
 21
104.8933364278298
  0
LINE
  5
1CF
100
AcDbEntity
  8
Layer0
  6
ByLayer
 62
  256
370
   -1
100
AcDbLine
 10
-184.2034049561834
 20
84.89333642782977
 11
-184.2034049561834
 21
104.8933364278298
  0
LINE
  5
1D0
100
AcDbEntity
  8
Layer0
  6
ByLayer
 62
  256
370
   -1
100
AcDbLine
 10
-174.1034049561834
 20
84.89333642782977
 11
-174.1034049561834
 21
87.89333642782977
  0
LINE
  5
1D1
100
AcDbEntity
  8
Layer0
  6
ByLayer
 62
  256
370
   -1
100
AcDbLine
 10
-174.1034049561834
 20
87.89333642782977
 11
-156.2082214213104
 21
87.89333642782977
  0
LINE
  5
1D2
100
AcDbEntity
  8
Layer0
  6
ByLayer
 62
  256
370
   -1
100
AcDbLine
 10
-156.2082214213104
 20
84.89333642782977
 11
-156.2082214213104
 21
87.89333642782977
  0
LINE
  5
1D3
100
AcDbEntity
  8
Layer0
  6
ByLayer
 62
  256
370
   -1
100
AcDbLine
 10
-174.2034049561834
 20
161.3933364278298
 11
-174.2034049561834
 21
158.3933364278298
  0
LINE
  5
1D4
100
AcDbEntity
  8
Layer0
  6
ByLayer
 62
  256
370
   -1
100
AcDbLine
 10
-156.1082214213104
 20
161.3933364278298
 11
-156.1082214213104
 21
158.3933364278298
  0
LINE
  5
1D5
100
AcDbEntity
  8
Layer0
  6
ByLayer
 62
  256
370
   -1
100
AcDbLine
 10
-156.1082214213104
 20
161.3933364278298
 11
-174.2034049561834
 21
161.3933364278298
  0
LINE
  5
1D6
100
AcDbEntity
  8
Layer0
  6
ByLayer
 62
  256
370
   -1
100
AcDbLine
 10
-251.3191296698087
 20
195.3749821566518
 11
-266.3191296698087
 21
195.3749821566518
  0
LINE
  5
1D7
100
AcDbEntity
  8
Layer0
  6
ByLayer
 62
  256
370
   -1
100
AcDbLine
 10
-266.3191296698087
 20
223.3701656915248
 11
-266.3191296698087
 21
233.4701656915248
  0
LINE
  5
1D8
100
AcDbEntity
  8
Layer0
  6
ByLayer
 62
  256
370
   -1
100
AcDbLine
 10
-266.3191296698087
 20
233.4701656915248
 11
-251.3191296698087
 21
233.4701656915248
  0
LINE
  5
1D9
100
AcDbEntity
  8
Layer0
  6
ByLayer
 62
  256
370
   -1
100
AcDbLine
 10
-251.3191296698087
 20
233.4701656915248
 11
-251.3191296698087
 21
236.4701656915248
  0
LINE
  5
1DA
100
AcDbEntity
  8
Layer0
  6
ByLayer
 62
  256
370
   -1
100
AcDbLine
 10
-204.3191296698087
 20
233.4701656915248
 11
-219.3191296698087
 21
233.4701656915248
  0
LINE
  5
1DB
100
AcDbEntity
  8
Layer0
  6
ByLayer
 62
  256
370
   -1
100
AcDbLine
 10
-204.3191296698087
 20
223.3701656915248
 11
-204.3191296698087
 21
233.4701656915248
  0
LINE
  5
1DC
100
AcDbEntity
  8
Layer0
  6
ByLayer
 62
  256
370
   -1
100
AcDbLine
 10
-204.3191296698087
 20
195.3749821566518
 11
-219.3191296698087
 21
195.3749821566518
  0
LINE
  5
1DD
100
AcDbEntity
  8
Layer0
  6
ByLayer
 62
  256
370
   -1
100
AcDbLine
 10
-219.3191296698087
 20
195.3749821566518
 11
-219.3191296698087
 21
192.3749821566518
  0
LINE
  5
1DE
100
AcDbEntity
  8
Layer0
  6
ByLayer
 62
  256
370
   -1
100
AcDbLine
 10
-251.3191296698087
 20
192.3749821566518
 11
-219.3191296698087
 21
192.3749821566518
  0
LINE
  5
1DF
100
AcDbEntity
  8
Layer0
  6
ByLayer
 62
  256
370
   -1
100
AcDbLine
 10
-251.3191296698087
 20
195.3749821566518
 11
-251.3191296698087
 21
192.3749821566518
  0
LINE
  5
1E0
100
AcDbEntity
  8
Layer0
  6
ByLayer
 62
  256
370
   -1
100
AcDbLine
 10
-204.3191296698087
 20
195.3749821566518
 11
-204.3191296698087
 21
205.4749821566518
  0
LINE
  5
1E1
100
AcDbEntity
  8
Layer0
  6
ByLayer
 62
  256
370
   -1
100
AcDbLine
 10
-266.3191296698087
 20
195.3749821566518
 11
-266.3191296698087
 21
205.4749821566518
  0
LINE
  5
1E2
100
AcDbEntity
  8
Layer0
  6
ByLayer
 62
  256
370
   -1
100
AcDbLine
 10
-251.3191296698087
 20
236.4701656915248
 11
-219.3191296698087
 21
236.4701656915248
  0
LINE
  5
1E3
100
AcDbEntity
  8
Layer0
  6
ByLayer
 62
  256
370
   -1
100
AcDbLine
 10
-219.3191296698087
 20
236.4701656915248
 11
-219.3191296698087
 21
233.4701656915248
  0
LINE
  5
1E4
100
AcDbEntity
  8
Layer0
  6
ByLayer
 62
  256
370
   -1
100
AcDbLine
 10
-266.3191296698087
 20
205.4749821566518
 11
-263.3191296698087
 21
205.4749821566518
  0
LINE
  5
1E5
100
AcDbEntity
  8
Layer0
  6
ByLayer
 62
  256
370
   -1
100
AcDbLine
 10
-266.3191296698087
 20
223.3701656915248
 11
-263.3191296698087
 21
223.3701656915248
  0
LINE
  5
1E6
100
AcDbEntity
  8
Layer0
  6
ByLayer
 62
  256
370
   -1
100
AcDbLine
 10
-263.3191296698087
 20
223.3701656915248
 11
-263.3191296698087
 21
205.4749821566518
  0
LINE
  5
1E7
100
AcDbEntity
  8
Layer0
  6
ByLayer
 62
  256
370
   -1
100
AcDbLine
 10
-204.3191296698087
 20
205.4749821566518
 11
-207.3191296698087
 21
205.4749821566518
  0
LINE
  5
1E8
100
AcDbEntity
  8
Layer0
  6
ByLayer
 62
  256
370
   -1
100
AcDbLine
 10
-207.3191296698087
 20
205.4749821566518
 11
-207.3191296698087
 21
223.3701656915248
  0
LINE
  5
1E9
100
AcDbEntity
  8
Layer0
  6
ByLayer
 62
  256
370
   -1
100
AcDbLine
 10
-204.3191296698087
 20
223.3701656915248
 11
-207.3191296698087
 21
223.3701656915248
  0
LINE
  5
1EA
100
AcDbEntity
  8
Layer0
  6
ByLayer
 62
  256
370
   -1
100
AcDbLine
 10
-165.004816465127
 20
220
 11
-153.004816465127
 21
220
  0
LINE
  5
1EB
100
AcDbEntity
  8
Layer0
  6
ByLayer
 62
  256
370
   -1
100
AcDbLine
 10
-187
 20
212
 11
-187
 21
224.0638737068895
  0
LINE
  5
1EC
100
AcDbEntity
  8
Layer0
  6
ByLayer
 62
  256
370
   -1
100
AcDbLine
 10
-148.904816465127
 20
212
 11
-148.904816465127
 21
224.0638737068895
  0
LINE
  5
1ED
100
AcDbEntity
  8
Layer0
  6
ByLayer
 62
  256
370
   -1
100
AcDbLine
 10
-148.904816465127
 20
224.0638737068895
 11
-158.904816465127
 21
224.0638737068895
  0
LINE
  5
1EE
100
AcDbEntity
  8
Layer0
  6
ByLayer
 62
  256
370
   -1
100
AcDbLine
 10
-190
 20
212
 11
-190
 21
180
  0
LINE
  5
1EF
100
AcDbEntity
  8
Layer0
  6
ByLayer
 62
  256
370
   -1
100
AcDbLine
 10
-153.004816465127
 20
191
 11
-165.004816465127
 21
191
  0
LINE
  5
1F0
100
AcDbEntity
  8
Layer0
  6
ByLayer
 62
  256
370
   -1
100
AcDbLine
 10
-153.004816465127
 20
220
 11
-153.004816465127
 21
210
  0
LINE
  5
1F1
100
AcDbEntity
  8
Layer0
  6
ByLayer
 62
  256
370
   -1
100
AcDbLine
 10
-187
 20
168
 11
-187
 21
180
  0
LINE
  5
1F2
100
AcDbEntity
  8
Layer0
  6
ByLayer
 62
  256
370
   -1
100
AcDbLine
 10
-148.904816465127
 20
168
 11
-153.904816465127
 21
168
  0
LINE
  5
1F3
100
AcDbEntity
  8
Layer0
  6
ByLayer
 62
  256
370
   -1
100
AcDbLine
 10
-165.004816465127
 20
178
 11
-153.004816465127
 21
178
  0
LINE
  5
1F4
100
AcDbEntity
  8
Layer0
  6
ByLayer
 62
  256
370
   -1
100
AcDbLine
 10
-153.004816465127
 20
210
 11
-165.004816465127
 21
210
  0
LINE
  5
1F5
100
AcDbEntity
  8
Layer0
  6
ByLayer
 62
  256
370
   -1
100
AcDbLine
 10
-187
 20
212
 11
-190
 21
212
  0
LINE
  5
1F6
100
AcDbEntity
  8
Layer0
  6
ByLayer
 62
  256
370
   -1
100
AcDbLine
 10
-148.904816465127
 20
168
 11
-148.904816465127
 21
180
  0
LINE
  5
1F7
100
AcDbEntity
  8
Layer0
  6
ByLayer
 62
  256
370
   -1
100
AcDbLine
 10
-187
 20
180
 11
-190
 21
180
  0
LINE
  5
1F8
100
AcDbEntity
  8
Layer0
  6
ByLayer
 62
  256
370
   -1
100
AcDbLine
 10
-165.004816465127
 20
210
 11
-165.004816465127
 21
220
  0
LINE
  5
1F9
100
AcDbEntity
  8
Layer0
  6
ByLayer
 62
  256
370
   -1
100
AcDbLine
 10
-165.004816465127
 20
191
 11
-165.004816465127
 21
178
  0
LINE
  5
1FA
100
AcDbEntity
  8
Layer0
  6
ByLayer
 62
  256
370
   -1
100
AcDbLine
 10
-148.904816465127
 20
212
 11
-145.904816465127
 21
212
  0
LINE
  5
1FB
100
AcDbEntity
  8
Layer0
  6
ByLayer
 62
  256
370
   -1
100
AcDbLine
 10
-187
 20
224.0638737068895
 11
-177
 21
224.0638737068895
  0
LINE
  5
1FC
100
AcDbEntity
  8
Layer0
  6
ByLayer
 62
  256
370
   -1
100
AcDbLine
 10
-187
 20
168
 11
-177
 21
168
  0
LINE
  5
1FD
100
AcDbEntity
  8
Layer0
  6
ByLayer
 62
  256
370
   -1
100
AcDbLine
 10
-153.004816465127
 20
178
 11
-153.004816465127
 21
191
  0
LINE
  5
1FE
100
AcDbEntity
  8
Layer0
  6
ByLayer
 62
  256
370
   -1
100
AcDbLine
 10
-145.904816465127
 20
180
 11
-148.904816465127
 21
180
  0
LINE
  5
1FF
100
AcDbEntity
  8
Layer0
  6
ByLayer
 62
  256
370
   -1
100
AcDbLine
 10
-145.904816465127
 20
212
 11
-145.904816465127
 21
180
  0
LINE
  5
200
100
AcDbEntity
  8
Layer0
  6
ByLayer
 62
  256
370
   -1
100
AcDbLine
 10
-158.904816465127
 20
165
 11
-158.904816465127
 21
168
  0
LINE
  5
201
100
AcDbEntity
  8
Layer0
  6
ByLayer
 62
  256
370
   -1
100
AcDbLine
 10
-158.904816465127
 20
165
 11
-177
 21
165
  0
LINE
  5
202
100
AcDbEntity
  8
Layer0
  6
ByLayer
 62
  256
370
   -1
100
AcDbLine
 10
-177
 20
165
 11
-177
 21
168
  0
LINE
  5
203
100
AcDbEntity
  8
Layer0
  6
ByLayer
 62
  256
370
   -1
100
AcDbLine
 10
-158.904816465127
 20
227.0000000000003
 11
-158.904816465127
 21
224.0638737068895
  0
LINE
  5
204
100
AcDbEntity
  8
Layer0
  6
ByLayer
 62
  256
370
   -1
100
AcDbLine
 10
-158.904816465127
 20
227.0000000000003
 11
-177
 21
227.0000000000003
  0
LINE
  5
205
100
AcDbEntity
  8
Layer0
  6
ByLayer
 62
  256
370
   -1
100
AcDbLine
 10
-177
 20
227.0000000000003
 11
-177
 21
224.0638737068895
  0
LINE
  5
206
100
AcDbEntity
  8
Layer0
  6
ByLayer
 62
  256
370
   -1
100
AcDbLine
 10
-153.904816465127
 20
168
 11
-158.904816465127
 21
168
  0
LINE
  5
207
100
AcDbEntity
  8
Layer0
  6
ByLayer
 62
  256
370
   -1
100
AcDbLine
 10
-178.0760344847864
 20
219.980243551518
 11
-166.0760344847864
 21
219.980243551518
  0
LINE
  5
208
100
AcDbEntity
  8
Layer0
  6
ByLayer
 62
  256
370
   -1
100
AcDbLine
 10
-166.0760344847864
 20
219.980243551518
 11
-166.0760344847864
 21
209.980243551518
  0
LINE
  5
209
100
AcDbEntity
  8
Layer0
  6
ByLayer
 62
  256
370
   -1
100
AcDbLine
 10
-166.0760344847864
 20
209.980243551518
 11
-178.0760344847864
 21
209.980243551518
  0
LINE
  5
20A
100
AcDbEntity
  8
Layer0
  6
ByLayer
 62
  256
370
   -1
100
AcDbLine
 10
-178.0760344847864
 20
209.980243551518
 11
-178.0760344847864
 21
219.980243551518
  0
LWPOLYLINE
  5
20B
100
AcDbEntity
  8
0
  6
ByLayer
 62
  256
370
   -1
100
AcDbPolyline
 90
    4
 70
    1
 43
0
 10
-246.0733858085614
 20
83.77765654245678
 10
-205.1416404696944
 20
83.81426359343654
 10
-205.0104757379363
 20
40.00524318622558
 10
-246.0733858085614
 20
39.89721585545151
  0
ENDSEC
  0
SECTION
  2
OBJECTS
  0
DICTIONARY
  5
C
330
0
100
AcDbDictionary
281
    1
  3
ACAD_GROUP
350
D
  0
DICTIONARY
  5
D
330
C
100
AcDbDictionary
281
    1
  0
ENDSEC
  0
EOF
