; NON-PLATED HOLES START AT T1
; THROUGH (PLATED) HOLES START AT T100
M48
INCH
T100C0.031497
T101C0.038000
T102C0.118000
T103C0.125984
T104C0.027559
T105C0.015748
T106C0.035000
T107C0.040000
T108C0.032000
T109C0.040278
%
T100
X007527Y012111
X005839Y002060
X008529Y013803
X007581Y010477
X007544Y013803
X008565Y010477
X026077Y014391
X005839Y003045
X008464Y015468
X025092Y014391
X008511Y012111
X007480Y015468
T101
X020176Y006360
X021182Y007403
X020146Y005117
X023153Y004115
X021145Y003103
X020183Y008431
X021176Y006360
X024708Y004136
X020153Y004115
X020145Y003103
X022176Y006360
X024708Y006136
X022146Y005117
X021153Y004115
X023176Y006360
X024708Y005136
X023146Y005117
X022182Y007403
X022153Y004115
X022145Y003103
X022183Y008431
X023145Y003103
X023182Y007403
X021183Y008431
X021146Y005117
X023183Y008431
X024708Y007136
X020182Y007403
T102
X003078Y002206
X001447Y003677
T103
X004330Y003687
T104
X022262Y010826
X009655Y008286
X009655Y006317
X022262Y012794
T105
X011985Y014911
X014043Y017690
X006725Y004071
X017648Y015399
T106
X007135Y005446
X000727Y007784
X017718Y009289
X014718Y012289
X023849Y017799
X008135Y005446
X010718Y009289
X004118Y007750
X021598Y018377
X017756Y003298
X013718Y012289
X002909Y011785
X013718Y009289
X023849Y013799
X015718Y009289
X013756Y003298
X001806Y011801
X011999Y018235
X004118Y011750
X010718Y012289
X009525Y001362
X014718Y009289
X002015Y006133
X017718Y012289
X026339Y004977
X026339Y008977
X002909Y007785
X016718Y012289
X007991Y008239
X009525Y005362
X015999Y018235
X011718Y012289
X000727Y011784
X011718Y009289
X015718Y012289
X017598Y018377
X001806Y007801
X012718Y009289
X006015Y006133
X006991Y008239
X016718Y009289
X012718Y012289
T107
X017474Y007793
X022153Y014108
X013367Y007779
X015226Y013849
X015474Y007793
X013097Y013839
X011097Y013839
X020153Y014108
X017226Y013849
X011367Y007779
T108
X020037Y011981
X020537Y011231
X021037Y011981
T109
X014025Y001114
X014425Y020114
X023025Y001114
X008366Y018683
X025012Y010156
X008425Y020114
X007326Y017691
X018025Y020114
X013425Y020114
X012025Y001114
X018025Y001114
X021025Y020114
X015425Y020114
X026012Y010156
X016425Y020114
X023025Y020114
X009425Y020114
X019025Y020114
X024025Y020114
X007326Y018683
X024025Y001114
X022025Y001114
X021025Y001114
X025025Y001114
X010425Y020114
X017025Y001114
X025012Y011149
X008366Y017691
X015025Y001114
X026012Y011149
X016025Y001114
X006287Y017691
X007425Y020114
X011025Y001114
X012425Y020114
X020025Y001114
X026012Y012141
X025012Y012141
X006287Y018683
X025025Y020114
X013025Y001114
X011425Y020114
X022025Y020114
X020025Y020114
T00
M30
