G04 MADE WITH FRITZING*
G04 WWW.FRITZING.ORG*
G04 DOUBLE SIDED*
G04 HOLES PLATED*
G04 CONTOUR ON CENTER OF CONTOUR VECTOR*
%ASAXBY*%
%FSLAX23Y23*%
%MOIN*%
%OFA0B0*%
%SFA1.0B1.0*%
%ADD10C,0.049370*%
%ADD11C,0.088000*%
%ADD12C,0.075000*%
%ADD13C,0.072992*%
%ADD14C,0.090000*%
%ADD15C,0.085000*%
%ADD16C,0.075278*%
%ADD17C,0.084000*%
%ADD18C,0.172000*%
%ADD19R,0.072992X0.072992*%
%ADD20R,0.090000X0.089986*%
%ADD21R,0.085000X0.085000*%
%LNMASK0*%
G90*
G70*
G54D10*
X1199Y1491D03*
X1765Y1540D03*
X1404Y1769D03*
X673Y407D03*
G54D11*
X2015Y310D03*
X2115Y310D03*
X2215Y310D03*
X2315Y310D03*
X2471Y714D03*
X2471Y614D03*
X2471Y514D03*
X2471Y414D03*
X2015Y512D03*
X2115Y512D03*
X2215Y512D03*
X2315Y512D03*
X2015Y412D03*
X2115Y412D03*
X2215Y412D03*
X2315Y412D03*
X2018Y636D03*
X2118Y636D03*
X2218Y636D03*
X2318Y636D03*
X2018Y740D03*
X2118Y740D03*
X2218Y740D03*
X2318Y740D03*
X2018Y843D03*
X2118Y843D03*
X2218Y843D03*
X2318Y843D03*
G54D12*
X966Y632D03*
X966Y829D03*
X2226Y1083D03*
X2226Y1279D03*
G54D13*
X2509Y1439D03*
X2608Y1439D03*
X846Y1547D03*
X748Y1547D03*
X853Y1380D03*
X754Y1380D03*
X851Y1211D03*
X753Y1211D03*
X857Y1048D03*
X758Y1048D03*
G54D14*
X2015Y1411D03*
X2215Y1411D03*
X1747Y779D03*
X1547Y779D03*
X1337Y778D03*
X1137Y778D03*
X1110Y1384D03*
X1310Y1384D03*
X1523Y1385D03*
X1723Y1385D03*
G54D15*
X602Y613D03*
X202Y613D03*
G54D16*
X2103Y111D03*
X2203Y111D03*
X2303Y111D03*
X2403Y111D03*
X2503Y111D03*
X1643Y2011D03*
X1543Y2011D03*
X1443Y2011D03*
X1343Y2011D03*
X1243Y2011D03*
X1143Y2011D03*
X1043Y2011D03*
X943Y2011D03*
X843Y2011D03*
X743Y2011D03*
X2503Y2011D03*
X2403Y2011D03*
X2303Y2011D03*
X2203Y2011D03*
X2103Y2011D03*
X2003Y2011D03*
X1903Y2011D03*
X1803Y2011D03*
X1203Y111D03*
X1103Y111D03*
X1303Y111D03*
X1403Y111D03*
X1503Y111D03*
X1603Y111D03*
X1703Y111D03*
X1803Y111D03*
X2003Y111D03*
X2601Y1214D03*
X2501Y1214D03*
X2601Y1115D03*
X2501Y1115D03*
X2601Y1016D03*
X2501Y1016D03*
X733Y1868D03*
X733Y1769D03*
X837Y1868D03*
X837Y1769D03*
X629Y1868D03*
X629Y1769D03*
G54D17*
X2104Y1198D03*
X2054Y1123D03*
X2004Y1198D03*
G54D15*
X1772Y1229D03*
X1772Y929D03*
X1672Y1229D03*
X1672Y929D03*
X1572Y1229D03*
X1572Y929D03*
X1472Y1229D03*
X1472Y929D03*
X1372Y1229D03*
X1372Y929D03*
X1272Y1229D03*
X1272Y929D03*
X1172Y1229D03*
X1172Y929D03*
X1072Y1229D03*
X1072Y929D03*
X814Y545D03*
X714Y545D03*
X699Y824D03*
X799Y824D03*
G54D18*
X433Y369D03*
X145Y368D03*
X308Y221D03*
G54D13*
X584Y206D03*
X584Y305D03*
G54D15*
X412Y1175D03*
X412Y775D03*
X291Y1179D03*
X291Y779D03*
X181Y1180D03*
X181Y780D03*
X73Y1178D03*
X73Y778D03*
X2634Y498D03*
X2634Y898D03*
X2385Y1380D03*
X2385Y1780D03*
X953Y536D03*
X953Y136D03*
X1376Y330D03*
X1776Y330D03*
X1760Y1838D03*
X2160Y1838D03*
X1200Y1824D03*
X1600Y1824D03*
G54D19*
X2509Y1439D03*
X846Y1547D03*
X853Y1380D03*
X851Y1211D03*
X857Y1048D03*
G54D20*
X2015Y1411D03*
X1747Y779D03*
X1337Y778D03*
X1110Y1384D03*
X1523Y1385D03*
G54D21*
X1772Y1229D03*
X814Y545D03*
X699Y824D03*
G54D19*
X584Y206D03*
G04 End of Mask0*
M02*